<svg xmlns="http://www.w3.org/2000/svg" width="1026" height="395" viewBox="0 0 1026 395" role="img">
<title>Instructing Machines</title>
<circle cx="513.21" cy="133.00" r="84.00" fill="none" stroke="#7F77DD" stroke-width="5.25"/>
<g stroke="#7F77DD" stroke-width="12.18" stroke-linecap="round">
<line x1="597.21" y1="133.00" x2="618.21" y2="133.00"/>
<line x1="572.60" y1="192.40" x2="587.45" y2="207.25"/>
<line x1="513.21" y1="217.00" x2="513.21" y2="238.00"/>
<line x1="453.81" y1="192.40" x2="438.96" y2="207.25"/>
<line x1="429.21" y1="133.00" x2="408.21" y2="133.00"/>
<line x1="453.81" y1="73.60" x2="438.96" y2="58.75"/>
<line x1="513.21" y1="49.00" x2="513.21" y2="28.00"/>
<line x1="572.60" y1="73.60" x2="587.45" y2="58.75"/>
</g>
<path d="M474.74 94.53L516.74 133.00L474.74 171.47" fill="none" stroke="#1A1A18" stroke-width="13.94" stroke-linecap="round" stroke-linejoin="round"/>
<line x1="534.21" y1="171.47" x2="565.71" y2="171.47" stroke="#1A1A18" stroke-width="13.94" stroke-linecap="round"/>
<g transform="translate(28.00 345.32)" fill="#1A1A18"><path d="M17.387999999999998 -63.94V0.0H6.8999999999999995V-63.94ZM77.556 -29.9V0.0H67.16V-28.336Q67.16 -35.144 63.756 -38.778Q60.352000000000004 -42.412 54.464 -42.412Q48.576 -42.412 45.126000000000005 -38.778Q41.676 -35.144 41.676 -28.336V0.0H31.188V-50.692H41.676V-44.896Q44.251999999999995 -48.024 48.254 -49.772Q52.256 -51.519999999999996 56.763999999999996 -51.519999999999996Q62.744 -51.519999999999996 67.482 -49.036Q72.22 -46.552 74.888 -41.676Q77.556 -36.8 77.556 -29.9ZM88.136 -15.548H98.99199999999999Q99.268 -12.328 102.074 -10.166Q104.88 -8.004 109.112 -8.004Q113.52799999999999 -8.004 115.966 -9.706Q118.404 -11.408 118.404 -14.076Q118.404 -16.928 115.69 -18.308Q112.976 -19.688 107.088 -21.344Q101.38399999999999 -22.908 97.79599999999999 -24.380000000000003Q94.208 -25.852 91.586 -28.887999999999998Q88.964 -31.924 88.964 -36.891999999999996Q88.964 -40.94 91.356 -44.298Q93.74799999999999 -47.656 98.21 -49.587999999999994Q102.672 -51.519999999999996 108.46799999999999 -51.519999999999996Q117.11599999999999 -51.519999999999996 122.40599999999999 -47.15Q127.696 -42.78 128.064 -35.236H117.576Q117.3 -38.64 114.816 -40.664Q112.332 -42.688 108.1 -42.688Q103.96 -42.688 101.752 -41.124Q99.544 -39.56 99.544 -36.984Q99.544 -34.96 101.01599999999999 -33.58Q102.488 -32.2 104.604 -31.418Q106.72 -30.636 110.86 -29.439999999999998Q116.38 -27.968 119.922 -26.45Q123.464 -24.932 126.03999999999999 -21.988Q128.61599999999999 -19.044 128.708 -14.168Q128.708 -9.844 126.316 -6.4399999999999995Q123.92399999999999 -3.036 119.554 -1.104Q115.184 0.828 109.29599999999999 0.828Q103.316 0.828 98.578 -1.334Q93.83999999999999 -3.496 91.07999999999998 -7.222Q88.32 -10.948 88.136 -15.548ZM152.26 -42.136V-14.076Q152.26 -11.224 153.594 -9.982Q154.928 -8.74 158.148 -8.74H164.588V0.0H156.308Q149.224 0.0 145.452 -3.312Q141.68 -6.624 141.68 -14.076V-42.136H135.7V-50.692H141.68V-63.296H152.26V-50.692H164.588V-42.136ZM199.916 -51.519999999999996V-40.664H197.248Q191.08399999999997 -40.664 187.90999999999997 -37.536Q184.736 -34.408 184.736 -26.68V0.0H174.248V-50.692H184.736V-43.332Q187.03599999999997 -47.196 190.85399999999998 -49.358Q194.67199999999997 -51.519999999999996 199.916 -51.519999999999996ZM255.48399999999998 -50.692V0.0H244.99599999999998V-5.9799999999999995Q242.512 -2.852 238.51 -1.0579999999999998Q234.50799999999998 0.736 230.0 0.736Q224.01999999999998 0.736 219.28199999999998 -1.7480000000000002Q214.54399999999998 -4.232 211.82999999999998 -9.108Q209.11599999999999 -13.984 209.11599999999999 -20.884V-50.692H219.512V-22.448Q219.512 -15.64 222.916 -12.006Q226.32 -8.372 232.208 -8.372Q238.096 -8.372 241.546 -12.006Q244.99599999999998 -15.64 244.99599999999998 -22.448V-50.692ZM290.62800000000004 -51.519999999999996Q299.82800000000003 -51.519999999999996 305.85400000000004 -47.15Q311.88 -42.78 313.99600000000004 -34.684H302.68Q301.3 -38.455999999999996 298.264 -40.572Q295.228 -42.688 290.62800000000004 -42.688Q284.188 -42.688 280.37 -38.134Q276.552 -33.58 276.552 -25.392Q276.552 -17.204 280.37 -12.604Q284.188 -8.004 290.62800000000004 -8.004Q299.736 -8.004 302.68 -16.008H313.99600000000004Q311.788 -8.28 305.716 -3.7259999999999995Q299.644 0.828 290.62800000000004 0.828Q283.36 0.828 277.74800000000005 -2.4379999999999997Q272.136 -5.704 268.962 -11.638Q265.788 -17.572 265.788 -25.392Q265.788 -33.211999999999996 268.962 -39.146Q272.136 -45.08 277.74800000000005 -48.3Q283.36 -51.519999999999996 290.62800000000004 -51.519999999999996ZM336.72 -42.136V-14.076Q336.72 -11.224 338.054 -9.982Q339.388 -8.74 342.608 -8.74H349.048V0.0H340.76800000000003Q333.684 0.0 329.91200000000003 -3.312Q326.14 -6.624 326.14 -14.076V-42.136H320.16V-50.692H326.14V-63.296H336.72V-50.692H349.048V-42.136ZM357.328 -64.124Q357.328 -66.976 359.26 -68.908Q361.192 -70.84 364.044 -70.84Q366.804 -70.84 368.736 -68.908Q370.668 -66.976 370.668 -64.124Q370.668 -61.272 368.736 -59.34Q366.804 -57.408 364.044 -57.408Q361.192 -57.408 359.26 -59.34Q357.328 -61.272 357.328 -64.124ZM369.19599999999997 -50.692V0.0H358.70799999999997V-50.692ZM429.36400000000003 -29.9V0.0H418.968V-28.336Q418.968 -35.144 415.564 -38.778Q412.16 -42.412 406.272 -42.412Q400.384 -42.412 396.93399999999997 -38.778Q393.484 -35.144 393.484 -28.336V0.0H382.996V-50.692H393.484V-44.896Q396.06 -48.024 400.062 -49.772Q404.064 -51.519999999999996 408.572 -51.519999999999996Q414.552 -51.519999999999996 419.29 -49.036Q424.028 -46.552 426.696 -41.676Q429.36400000000003 -36.8 429.36400000000003 -29.9ZM480.7 -43.332V-50.692H491.28V0.828Q491.28 7.82 488.336 13.294Q485.392 18.768 479.826 21.896Q474.26 25.024 466.532 25.024Q456.22799999999995 25.024 449.41999999999996 20.194Q442.61199999999997 15.363999999999999 441.69199999999995 7.084H452.08799999999997Q453.284 11.04 457.19399999999996 13.478Q461.104 15.916 466.532 15.916Q472.88 15.916 476.78999999999996 12.052Q480.7 8.188 480.7 0.828V-7.636Q478.032 -4.048 473.47799999999995 -1.61Q468.924 0.828 463.128 0.828Q456.50399999999996 0.828 451.03 -2.53Q445.556 -5.888 442.38199999999995 -11.914000000000001Q439.20799999999997 -17.94 439.20799999999997 -25.576Q439.20799999999997 -33.211999999999996 442.38199999999995 -39.099999999999994Q445.556 -44.988 451.03 -48.254Q456.50399999999996 -51.519999999999996 463.128 -51.519999999999996Q469.01599999999996 -51.519999999999996 473.56999999999994 -49.17399999999999Q478.12399999999997 -46.827999999999996 480.7 -43.332ZM465.33599999999996 -42.412Q461.28799999999995 -42.412 457.792 -40.434Q454.296 -38.455999999999996 452.134 -34.638Q449.972 -30.82 449.972 -25.576Q449.972 -20.332 452.134 -16.376Q454.296 -12.42 457.83799999999997 -10.35Q461.38 -8.28 465.33599999999996 -8.28Q469.38399999999996 -8.28 472.88 -10.303999999999998Q476.376 -12.328 478.538 -16.238Q480.7 -20.148 480.7 -25.392Q480.7 -30.636 478.538 -34.5Q476.376 -38.364 472.88 -40.388Q469.38399999999996 -42.412 465.33599999999996 -42.412ZM596.3439999999999 -63.94V0.0H585.8559999999999V-43.792L566.3519999999999 0.0H559.084L539.4879999999999 -43.792V0.0H528.9999999999999V-63.94H540.3159999999999L562.7639999999999 -13.799999999999999L585.1199999999999 -63.94ZM630.5679999999999 -51.519999999999996Q636.5479999999999 -51.519999999999996 641.0099999999999 -49.17399999999999Q645.4719999999999 -46.827999999999996 648.1399999999999 -43.332V-50.692H658.7199999999999V0.0H648.1399999999999V-7.544Q645.4719999999999 -3.956 640.8719999999998 -1.564Q636.2719999999999 0.828 630.3839999999999 0.828Q623.8519999999999 0.828 618.4239999999999 -2.53Q612.9959999999999 -5.888 609.8219999999999 -11.914000000000001Q606.6479999999999 -17.94 606.6479999999999 -25.576Q606.6479999999999 -33.211999999999996 609.8219999999999 -39.099999999999994Q612.9959999999999 -44.988 618.4699999999999 -48.254Q623.944 -51.519999999999996 630.5679999999999 -51.519999999999996ZM632.776 -42.412Q628.728 -42.412 625.232 -40.434Q621.7359999999999 -38.455999999999996 619.5739999999998 -34.638Q617.4119999999999 -30.82 617.4119999999999 -25.576Q617.4119999999999 -20.332 619.5739999999998 -16.376Q621.7359999999999 -12.42 625.2779999999999 -10.35Q628.8199999999999 -8.28 632.776 -8.28Q636.824 -8.28 640.3199999999999 -10.303999999999998Q643.8159999999999 -12.328 645.9779999999998 -16.238Q648.1399999999999 -20.148 648.1399999999999 -25.392Q648.1399999999999 -30.636 645.9779999999998 -34.5Q643.8159999999999 -38.364 640.3199999999999 -40.388Q636.824 -42.412 632.776 -42.412ZM693.8639999999999 -51.519999999999996Q703.0639999999999 -51.519999999999996 709.0899999999999 -47.15Q715.1159999999999 -42.78 717.2319999999999 -34.684H705.9159999999999Q704.5359999999998 -38.455999999999996 701.4999999999999 -40.572Q698.4639999999999 -42.688 693.8639999999999 -42.688Q687.4239999999999 -42.688 683.6059999999999 -38.134Q679.7879999999999 -33.58 679.7879999999999 -25.392Q679.7879999999999 -17.204 683.6059999999999 -12.604Q687.4239999999999 -8.004 693.8639999999999 -8.004Q702.9719999999999 -8.004 705.9159999999999 -16.008H717.2319999999999Q715.0239999999999 -8.28 708.9519999999999 -3.7259999999999995Q702.8799999999999 0.828 693.8639999999999 0.828Q686.5959999999999 0.828 680.9839999999999 -2.4379999999999997Q675.3719999999998 -5.704 672.1979999999999 -11.638Q669.0239999999999 -17.572 669.0239999999999 -25.392Q669.0239999999999 -33.211999999999996 672.1979999999999 -39.146Q675.3719999999998 -45.08 680.9839999999999 -48.3Q686.5959999999999 -51.519999999999996 693.8639999999999 -51.519999999999996ZM774.088 -29.9V0.0H763.6919999999999V-28.336Q763.6919999999999 -35.144 760.2879999999999 -38.778Q756.8839999999999 -42.412 750.996 -42.412Q745.108 -42.412 741.6579999999999 -38.778Q738.208 -35.144 738.208 -28.336V0.0H727.7199999999999V-68.08H738.208V-44.804Q740.876 -48.024 744.97 -49.772Q749.064 -51.519999999999996 753.9399999999999 -51.519999999999996Q759.7359999999999 -51.519999999999996 764.29 -49.036Q768.8439999999999 -46.552 771.4659999999999 -41.676Q774.088 -36.8 774.088 -29.9ZM786.0479999999999 -64.124Q786.0479999999999 -66.976 787.9799999999999 -68.908Q789.9119999999999 -70.84 792.7639999999999 -70.84Q795.5239999999999 -70.84 797.4559999999999 -68.908Q799.3879999999999 -66.976 799.3879999999999 -64.124Q799.3879999999999 -61.272 797.4559999999999 -59.34Q795.5239999999999 -57.408 792.7639999999999 -57.408Q789.9119999999999 -57.408 787.9799999999999 -59.34Q786.0479999999999 -61.272 786.0479999999999 -64.124ZM797.9159999999999 -50.692V0.0H787.4279999999999V-50.692ZM858.084 -29.9V0.0H847.6879999999999V-28.336Q847.6879999999999 -35.144 844.2839999999999 -38.778Q840.8799999999999 -42.412 834.992 -42.412Q829.1039999999999 -42.412 825.654 -38.778Q822.204 -35.144 822.204 -28.336V0.0H811.7159999999999V-50.692H822.204V-44.896Q824.78 -48.024 828.7819999999999 -49.772Q832.7839999999999 -51.519999999999996 837.2919999999999 -51.519999999999996Q843.2719999999999 -51.519999999999996 848.01 -49.036Q852.7479999999999 -46.552 855.4159999999999 -41.676Q858.084 -36.8 858.084 -29.9ZM917.5159999999998 -21.436H878.7839999999999Q879.2439999999999 -15.363999999999999 883.2919999999999 -11.684Q887.3399999999999 -8.004 893.2279999999998 -8.004Q901.6919999999999 -8.004 905.1879999999999 -15.088H916.5039999999999Q914.2039999999998 -8.096 908.1779999999999 -3.634Q902.1519999999999 0.828 893.2279999999998 0.828Q885.9599999999999 0.828 880.2099999999999 -2.4379999999999997Q874.4599999999999 -5.704 871.194 -11.638Q867.9279999999999 -17.572 867.9279999999999 -25.392Q867.9279999999999 -33.211999999999996 871.1019999999999 -39.146Q874.2759999999998 -45.08 880.0259999999998 -48.3Q885.7759999999998 -51.519999999999996 893.2279999999998 -51.519999999999996Q900.4039999999999 -51.519999999999996 906.0159999999998 -48.391999999999996Q911.6279999999999 -45.263999999999996 914.7559999999999 -39.605999999999995Q917.8839999999999 -33.948 917.8839999999999 -26.588Q917.8839999999999 -23.736 917.5159999999998 -21.436ZM906.9359999999999 -29.9Q906.8439999999999 -35.696 902.7959999999999 -39.192Q898.7479999999999 -42.688 892.7679999999999 -42.688Q887.3399999999999 -42.688 883.4759999999999 -39.238Q879.6119999999999 -35.788 878.8759999999999 -29.9ZM925.4279999999999 -15.548H936.2839999999999Q936.56 -12.328 939.366 -10.166Q942.1719999999999 -8.004 946.4039999999999 -8.004Q950.8199999999999 -8.004 953.2579999999999 -9.706Q955.6959999999999 -11.408 955.6959999999999 -14.076Q955.6959999999999 -16.928 952.982 -18.308Q950.2679999999999 -19.688 944.3799999999999 -21.344Q938.6759999999999 -22.908 935.088 -24.380000000000003Q931.4999999999999 -25.852 928.8779999999999 -28.887999999999998Q926.2559999999999 -31.924 926.2559999999999 -36.891999999999996Q926.2559999999999 -40.94 928.6479999999999 -44.298Q931.0399999999998 -47.656 935.502 -49.587999999999994Q939.9639999999999 -51.519999999999996 945.7599999999999 -51.519999999999996Q954.4079999999999 -51.519999999999996 959.6979999999999 -47.15Q964.9879999999999 -42.78 965.3559999999999 -35.236H954.8679999999999Q954.5919999999999 -38.64 952.108 -40.664Q949.6239999999999 -42.688 945.3919999999999 -42.688Q941.252 -42.688 939.0439999999999 -41.124Q936.8359999999999 -39.56 936.8359999999999 -36.984Q936.8359999999999 -34.96 938.3079999999999 -33.58Q939.7799999999999 -32.2 941.896 -31.418Q944.012 -30.636 948.1519999999999 -29.439999999999998Q953.6719999999999 -27.968 957.2139999999999 -26.45Q960.7559999999999 -24.932 963.3319999999999 -21.988Q965.9079999999999 -19.044 965.9999999999999 -14.168Q965.9999999999999 -9.844 963.608 -6.4399999999999995Q961.2159999999999 -3.036 956.8459999999999 -1.104Q952.4759999999999 0.828 946.5879999999999 0.828Q940.608 0.828 935.8699999999999 -1.334Q931.132 -3.496 928.3719999999998 -7.222Q925.6119999999999 -10.948 925.4279999999999 -15.548Z"/></g>
</svg>
