<svg xmlns="http://www.w3.org/2000/svg" width="1665" height="194" viewBox="0 0 1665 194" role="img">
<title>Instructing Machines</title>
<path d="M84.43 38.21 L86.50 24.75 A72.90 72.90 0 0 1 107.30 24.75 L109.37 38.21 A60.00 60.00 0 0 1 125.07 43.92 L135.32 34.94 A72.90 72.90 0 0 1 151.25 48.31 L144.18 59.96 A60.00 60.00 0 0 1 152.53 74.42 L166.15 74.13 A72.90 72.90 0 0 1 169.76 94.61 L156.86 98.99 A60.00 60.00 0 0 1 153.96 115.44 L164.59 123.97 A72.90 72.90 0 0 1 154.19 141.98 L141.49 137.05 A60.00 60.00 0 0 1 128.70 147.78 L131.35 161.15 A72.90 72.90 0 0 1 111.81 168.26 L105.25 156.32 A60.00 60.00 0 0 1 88.55 156.32 L81.99 168.26 A72.90 72.90 0 0 1 62.45 161.15 L65.10 147.78 A60.00 60.00 0 0 1 52.31 137.05 L39.61 141.98 A72.90 72.90 0 0 1 29.21 123.97 L39.84 115.44 A60.00 60.00 0 0 1 36.94 98.99 L24.04 94.61 A72.90 72.90 0 0 1 27.65 74.13 L41.27 74.42 A60.00 60.00 0 0 1 49.62 59.96 L42.55 48.31 A72.90 72.90 0 0 1 58.48 34.94 L68.73 43.92 A60.00 60.00 0 0 1 84.43 38.21 Z M142.50 96.90 A45.60 45.60 0 1 0 51.30 96.90 A45.60 45.60 0 1 0 142.50 96.90 Z" fill="#002546" fill-rule="evenodd"/>
<path d="M75.54 76.08L100.08 96.36L75.54 116.64" fill="none" stroke="#002546" stroke-width="8.58" stroke-linecap="round" stroke-linejoin="round"/>
<line x1="106.80" y1="116.64" x2="124.92" y2="116.64" stroke="#002546" stroke-width="8.58" stroke-linecap="round"/>
<g transform="translate(249.00 143.76)" fill="#002546"><path d="M24.948 -91.74000000000001V0.0H9.9V-91.74000000000001ZM111.276 -42.9V0.0H96.36V-40.656Q96.36 -50.424 91.476 -55.638000000000005Q86.592 -60.852000000000004 78.144 -60.852000000000004Q69.696 -60.852000000000004 64.746 -55.638000000000005Q59.796 -50.424 59.796 -40.656V0.0H44.748V-72.732H59.796V-64.416Q63.492000000000004 -68.904 69.23400000000001 -71.412Q74.976 -73.92 81.444 -73.92Q90.024 -73.92 96.822 -70.356Q103.62 -66.792 107.44800000000001 -59.79600000000001Q111.276 -52.800000000000004 111.276 -42.9ZM126.456 -22.308H142.032Q142.428 -17.688000000000002 146.454 -14.586000000000002Q150.48000000000002 -11.484 156.55200000000002 -11.484Q162.888 -11.484 166.38600000000002 -13.926000000000002Q169.88400000000001 -16.368000000000002 169.88400000000001 -20.196Q169.88400000000001 -24.288 165.99 -26.268Q162.096 -28.248 153.64800000000002 -30.624000000000002Q145.464 -32.868 140.316 -34.980000000000004Q135.168 -37.092 131.406 -41.448Q127.644 -45.804 127.644 -52.932Q127.644 -58.74 131.07600000000002 -63.55800000000001Q134.508 -68.376 140.91000000000003 -71.148Q147.312 -73.92 155.62800000000001 -73.92Q168.036 -73.92 175.626 -67.65Q183.216 -61.38 183.744 -50.556000000000004H168.696Q168.3 -55.440000000000005 164.736 -58.34400000000001Q161.172 -61.248000000000005 155.10000000000002 -61.248000000000005Q149.16 -61.248000000000005 145.99200000000002 -59.004000000000005Q142.824 -56.760000000000005 142.824 -53.064Q142.824 -50.160000000000004 144.936 -48.18000000000001Q147.048 -46.2 150.084 -45.078Q153.12 -43.956 159.06 -42.24Q166.98000000000002 -40.128 172.062 -37.95Q177.144 -35.772 180.84 -31.548000000000002Q184.536 -27.324 184.668 -20.328Q184.668 -14.124 181.236 -9.24Q177.804 -4.356 171.534 -1.5839999999999999Q165.264 1.1880000000000002 156.816 1.1880000000000002Q148.23600000000002 1.1880000000000002 141.43800000000002 -1.914Q134.64000000000001 -5.016 130.68 -10.362Q126.72 -15.708 126.456 -22.308ZM218.46000000000004 -60.456V-20.196Q218.46000000000004 -16.104 220.37400000000002 -14.322Q222.288 -12.540000000000001 226.90800000000002 -12.540000000000001H236.14800000000002V0.0H224.26800000000003Q214.104 0.0 208.692 -4.752000000000001Q203.28000000000003 -9.504000000000001 203.28000000000003 -20.196V-60.456H194.70000000000002V-72.732H203.28000000000003V-90.816H218.46000000000004V-72.732H236.14800000000002V-60.456ZM286.836 -73.92V-58.344H283.008Q274.164 -58.344 269.61 -53.856Q265.056 -49.368 265.056 -38.28V0.0H250.008V-72.732H265.056V-62.172000000000004Q268.356 -67.71600000000001 273.834 -70.81800000000001Q279.312 -73.92 286.836 -73.92ZM366.56399999999996 -72.732V0.0H351.516V-8.58Q347.952 -4.0920000000000005 342.21000000000004 -1.5180000000000002Q336.468 1.056 330.0 1.056Q321.42 1.056 314.622 -2.508Q307.824 -6.072 303.93 -13.068Q300.036 -20.064 300.036 -29.964000000000002V-72.732H314.952V-32.208Q314.952 -22.44 319.836 -17.226Q324.71999999999997 -12.012 333.168 -12.012Q341.616 -12.012 346.56600000000003 -17.226Q351.516 -22.44 351.516 -32.208V-72.732ZM416.988 -73.92Q430.188 -73.92 438.834 -67.65Q447.48 -61.38 450.516 -49.764H434.28Q432.3 -55.176 427.944 -58.212Q423.588 -61.248000000000005 416.988 -61.248000000000005Q407.748 -61.248000000000005 402.27 -54.714Q396.792 -48.18 396.792 -36.432Q396.792 -24.684 402.27 -18.084Q407.748 -11.484 416.988 -11.484Q430.056 -11.484 434.28 -22.968H450.516Q447.348 -11.88 438.63599999999997 -5.346Q429.924 1.1880000000000002 416.988 1.1880000000000002Q406.56 1.1880000000000002 398.50800000000004 -3.498Q390.456 -8.184000000000001 385.90200000000004 -16.698Q381.348 -25.212 381.348 -36.432Q381.348 -47.652 385.90200000000004 -56.166000000000004Q390.456 -64.68 398.50800000000004 -69.30000000000001Q406.56 -73.92 416.988 -73.92ZM483.12 -60.456V-20.196Q483.12 -16.104 485.034 -14.322Q486.948 -12.540000000000001 491.568 -12.540000000000001H500.808V0.0H488.928Q478.764 0.0 473.352 -4.752000000000001Q467.94 -9.504000000000001 467.94 -20.196V-60.456H459.36V-72.732H467.94V-90.816H483.12V-72.732H500.808V-60.456ZM512.688 -92.004Q512.688 -96.096 515.46 -98.868Q518.232 -101.64 522.324 -101.64Q526.284 -101.64 529.056 -98.868Q531.828 -96.096 531.828 -92.004Q531.828 -87.912 529.056 -85.14000000000001Q526.284 -82.36800000000001 522.324 -82.36800000000001Q518.232 -82.36800000000001 515.46 -85.14000000000001Q512.688 -87.912 512.688 -92.004ZM529.716 -72.732V0.0H514.668V-72.732ZM616.044 -42.9V0.0H601.1279999999999V-40.656Q601.1279999999999 -50.424 596.2439999999999 -55.638000000000005Q591.36 -60.852000000000004 582.912 -60.852000000000004Q574.4639999999999 -60.852000000000004 569.5139999999999 -55.638000000000005Q564.564 -50.424 564.564 -40.656V0.0H549.516V-72.732H564.564V-64.416Q568.26 -68.904 574.002 -71.412Q579.744 -73.92 586.212 -73.92Q594.792 -73.92 601.59 -70.356Q608.388 -66.792 612.216 -59.79600000000001Q616.044 -52.800000000000004 616.044 -42.9ZM689.7 -62.172000000000004V-72.732H704.88V1.1880000000000002Q704.88 11.22 700.656 19.074Q696.432 26.928 688.446 31.416000000000004Q680.46 35.904 669.372 35.904Q654.588 35.904 644.8199999999999 28.974000000000004Q635.052 22.044 633.732 10.164H648.648Q650.364 15.84 655.9739999999999 19.338Q661.584 22.836000000000002 669.372 22.836000000000002Q678.48 22.836000000000002 684.09 17.292Q689.7 11.748000000000001 689.7 1.1880000000000002V-10.956000000000001Q685.872 -5.808 679.338 -2.3099999999999996Q672.804 1.1880000000000002 664.4879999999999 1.1880000000000002Q654.984 1.1880000000000002 647.13 -3.63Q639.276 -8.448 634.722 -17.094Q630.168 -25.740000000000002 630.168 -36.696000000000005Q630.168 -47.652 634.722 -56.1Q639.276 -64.548 647.13 -69.23400000000001Q654.984 -73.92 664.4879999999999 -73.92Q672.936 -73.92 679.47 -70.554Q686.004 -67.188 689.7 -62.172000000000004ZM667.656 -60.852000000000004Q661.848 -60.852000000000004 656.832 -58.014Q651.816 -55.176 648.7139999999999 -49.698Q645.612 -44.22 645.612 -36.696000000000005Q645.612 -29.172 648.7139999999999 -23.496000000000002Q651.816 -17.82 656.898 -14.850000000000001Q661.98 -11.88 667.656 -11.88Q673.4639999999999 -11.88 678.48 -14.784000000000002Q683.496 -17.688000000000002 686.598 -23.298000000000002Q689.7 -28.908 689.7 -36.432Q689.7 -43.956 686.598 -49.5Q683.496 -55.044000000000004 678.48 -57.94800000000001Q673.4639999999999 -60.852000000000004 667.656 -60.852000000000004ZM855.624 -91.74000000000001V0.0H840.576V-62.832L812.592 0.0H802.164L774.048 -62.832V0.0H759.0V-91.74000000000001H775.236L807.4440000000001 -19.8L839.52 -91.74000000000001ZM904.728 -73.92Q913.308 -73.92 919.71 -70.554Q926.112 -67.188 929.94 -62.172000000000004V-72.732H945.12V0.0H929.94V-10.824Q926.112 -5.676 919.512 -2.2439999999999998Q912.912 1.1880000000000002 904.464 1.1880000000000002Q895.092 1.1880000000000002 887.304 -3.63Q879.516 -8.448 874.962 -17.094Q870.408 -25.740000000000002 870.408 -36.696000000000005Q870.408 -47.652 874.962 -56.1Q879.516 -64.548 887.37 -69.23400000000001Q895.224 -73.92 904.728 -73.92ZM907.896 -60.852000000000004Q902.088 -60.852000000000004 897.072 -58.014Q892.056 -55.176 888.954 -49.698Q885.852 -44.22 885.852 -36.696000000000005Q885.852 -29.172 888.954 -23.496000000000002Q892.056 -17.82 897.138 -14.850000000000001Q902.22 -11.88 907.896 -11.88Q913.704 -11.88 918.72 -14.784000000000002Q923.736 -17.688000000000002 926.838 -23.298000000000002Q929.94 -28.908 929.94 -36.432Q929.94 -43.956 926.838 -49.5Q923.736 -55.044000000000004 918.72 -57.94800000000001Q913.704 -60.852000000000004 907.896 -60.852000000000004ZM995.544 -73.92Q1008.744 -73.92 1017.3900000000001 -67.65Q1026.036 -61.38 1029.072 -49.764H1012.836Q1010.856 -55.176 1006.5 -58.212Q1002.144 -61.248000000000005 995.544 -61.248000000000005Q986.304 -61.248000000000005 980.826 -54.714Q975.348 -48.18 975.348 -36.432Q975.348 -24.684 980.826 -18.084Q986.304 -11.484 995.544 -11.484Q1008.612 -11.484 1012.836 -22.968H1029.072Q1025.904 -11.88 1017.192 -5.346Q1008.48 1.1880000000000002 995.544 1.1880000000000002Q985.116 1.1880000000000002 977.064 -3.498Q969.012 -8.184000000000001 964.458 -16.698Q959.904 -25.212 959.904 -36.432Q959.904 -47.652 964.458 -56.166000000000004Q969.012 -64.68 977.064 -69.30000000000001Q985.116 -73.92 995.544 -73.92ZM1110.6480000000001 -42.9V0.0H1095.732V-40.656Q1095.732 -50.424 1090.848 -55.638000000000005Q1085.964 -60.852000000000004 1077.516 -60.852000000000004Q1069.068 -60.852000000000004 1064.118 -55.638000000000005Q1059.1680000000001 -50.424 1059.1680000000001 -40.656V0.0H1044.1200000000001V-97.68H1059.1680000000001V-64.284Q1062.996 -68.904 1068.8700000000001 -71.412Q1074.7440000000001 -73.92 1081.74 -73.92Q1090.056 -73.92 1096.5900000000001 -70.356Q1103.124 -66.792 1106.886 -59.79600000000001Q1110.6480000000001 -52.800000000000004 1110.6480000000001 -42.9ZM1127.808 -92.004Q1127.808 -96.096 1130.58 -98.868Q1133.3519999999999 -101.64 1137.444 -101.64Q1141.404 -101.64 1144.176 -98.868Q1146.9479999999999 -96.096 1146.9479999999999 -92.004Q1146.9479999999999 -87.912 1144.176 -85.14000000000001Q1141.404 -82.36800000000001 1137.444 -82.36800000000001Q1133.3519999999999 -82.36800000000001 1130.58 -85.14000000000001Q1127.808 -87.912 1127.808 -92.004ZM1144.836 -72.732V0.0H1129.788V-72.732ZM1231.1639999999998 -42.9V0.0H1216.2479999999998V-40.656Q1216.2479999999998 -50.424 1211.3639999999998 -55.638000000000005Q1206.4799999999998 -60.852000000000004 1198.032 -60.852000000000004Q1189.5839999999998 -60.852000000000004 1184.634 -55.638000000000005Q1179.684 -50.424 1179.684 -40.656V0.0H1164.636V-72.732H1179.684V-64.416Q1183.3799999999999 -68.904 1189.1219999999998 -71.412Q1194.8639999999998 -73.92 1201.3319999999999 -73.92Q1209.9119999999998 -73.92 1216.7099999999998 -70.356Q1223.5079999999998 -66.792 1227.3359999999998 -59.79600000000001Q1231.1639999999998 -52.800000000000004 1231.1639999999998 -42.9ZM1316.436 -30.756H1260.864Q1261.524 -22.044 1267.3319999999999 -16.764Q1273.14 -11.484 1281.588 -11.484Q1293.732 -11.484 1298.748 -21.648H1314.984Q1311.684 -11.616 1303.038 -5.2139999999999995Q1294.392 1.1880000000000002 1281.588 1.1880000000000002Q1271.16 1.1880000000000002 1262.91 -3.498Q1254.66 -8.184000000000001 1249.9740000000002 -16.698Q1245.288 -25.212 1245.288 -36.432Q1245.288 -47.652 1249.842 -56.166000000000004Q1254.396 -64.68 1262.646 -69.30000000000001Q1270.896 -73.92 1281.588 -73.92Q1291.884 -73.92 1299.9360000000001 -69.432Q1307.988 -64.944 1312.476 -56.82600000000001Q1316.964 -48.708000000000006 1316.964 -38.148Q1316.964 -34.056000000000004 1316.436 -30.756ZM1301.256 -42.9Q1301.124 -51.216 1295.316 -56.232Q1289.508 -61.248000000000005 1280.9279999999999 -61.248000000000005Q1273.14 -61.248000000000005 1267.596 -56.298Q1262.052 -51.348 1260.996 -42.9ZM1327.788 -22.308H1343.364Q1343.76 -17.688000000000002 1347.786 -14.586000000000002Q1351.812 -11.484 1357.884 -11.484Q1364.22 -11.484 1367.7179999999998 -13.926000000000002Q1371.216 -16.368000000000002 1371.216 -20.196Q1371.216 -24.288 1367.322 -26.268Q1363.4279999999999 -28.248 1354.98 -30.624000000000002Q1346.796 -32.868 1341.6480000000001 -34.980000000000004Q1336.5 -37.092 1332.7379999999998 -41.448Q1328.9759999999999 -45.804 1328.9759999999999 -52.932Q1328.9759999999999 -58.74 1332.408 -63.55800000000001Q1335.84 -68.376 1342.242 -71.148Q1348.644 -73.92 1356.96 -73.92Q1369.368 -73.92 1376.958 -67.65Q1384.548 -61.38 1385.076 -50.556000000000004H1370.028Q1369.632 -55.440000000000005 1366.068 -58.34400000000001Q1362.504 -61.248000000000005 1356.432 -61.248000000000005Q1350.492 -61.248000000000005 1347.324 -59.004000000000005Q1344.156 -56.760000000000005 1344.156 -53.064Q1344.156 -50.160000000000004 1346.268 -48.18000000000001Q1348.3799999999999 -46.2 1351.416 -45.078Q1354.452 -43.956 1360.392 -42.24Q1368.312 -40.128 1373.3939999999998 -37.95Q1378.4759999999999 -35.772 1382.172 -31.548000000000002Q1385.868 -27.324 1386.0 -20.328Q1386.0 -14.124 1382.568 -9.24Q1379.136 -4.356 1372.866 -1.5839999999999999Q1366.596 1.1880000000000002 1358.148 1.1880000000000002Q1349.568 1.1880000000000002 1342.77 -1.914Q1335.972 -5.016 1332.012 -10.362Q1328.052 -15.708 1327.788 -22.308Z"/></g>
</svg>
