<svg xmlns="http://www.w3.org/2000/svg" width="259" height="259" viewBox="0 0 259 259" role="img">
<title>Instructing Machines</title>
<path d="M108.71 31.69 L112.17 9.24 A121.50 121.50 0 0 1 146.83 9.24 L150.29 31.69 A100.00 100.00 0 0 1 176.45 41.21 L193.53 26.24 A121.50 121.50 0 0 1 220.08 48.52 L208.30 67.93 A100.00 100.00 0 0 1 222.22 92.04 L244.92 91.55 A121.50 121.50 0 0 1 250.94 125.68 L229.44 132.99 A100.00 100.00 0 0 1 224.61 160.40 L242.31 174.62 A121.50 121.50 0 0 1 224.98 204.64 L203.81 196.41 A100.00 100.00 0 0 1 182.49 214.30 L186.91 236.58 A121.50 121.50 0 0 1 154.35 248.43 L143.42 228.53 A100.00 100.00 0 0 1 115.58 228.53 L104.65 248.43 A121.50 121.50 0 0 1 72.09 236.58 L76.51 214.30 A100.00 100.00 0 0 1 55.19 196.41 L34.02 204.64 A121.50 121.50 0 0 1 16.69 174.62 L34.39 160.40 A100.00 100.00 0 0 1 29.56 132.99 L8.06 125.68 A121.50 121.50 0 0 1 14.08 91.55 L36.78 92.04 A100.00 100.00 0 0 1 50.70 67.93 L38.92 48.52 A121.50 121.50 0 0 1 65.47 26.24 L82.55 41.21 A100.00 100.00 0 0 1 108.71 31.69 Z M205.50 129.50 A76.00 76.00 0 1 0 53.50 129.50 A76.00 76.00 0 1 0 205.50 129.50 Z" fill="#7F77DD" fill-rule="evenodd"/>
<path d="M93.90 94.80L134.80 128.60L93.90 162.40" fill="none" stroke="#1A1A18" stroke-width="14.30" stroke-linecap="round" stroke-linejoin="round"/>
<line x1="146.00" y1="162.40" x2="176.20" y2="162.40" stroke="#1A1A18" stroke-width="14.30" stroke-linecap="round"/>
</svg>
