<?xml version="1.0" encoding="UTF-8" standalone="no"?>
<!DOCTYPE svg PUBLIC "-//W3C//DTD SVG 1.1//EN" "http://www.w3.org/Graphics/SVG/1.1/DTD/svg11.dtd">
<svg xmlns:dc="http://purl.org/dc/elements/1.1/" xmlns="http://www.w3.org/2000/svg" xmlns:xl="http://www.w3.org/1999/xlink" version="1.1" viewBox="10381.217 5217.657 1225.0096 406.02053" width="1225.0096" height="406.02053">
  <defs>
    <marker orient="auto" overflow="visible" markerUnits="strokeWidth" id="FilledArrow_Marker" stroke-linejoin="miter" stroke-miterlimit="10" viewBox="-1 -3 6 6" markerWidth="6" markerHeight="6" color="black">
      <g>
        <path d="M 3.7333333 0 L 0 -1.4 L 0 1.4 Z" fill="currentColor" stroke="currentColor" stroke-width="1"/>
      </g>
    </marker>
  </defs>
  <g id="Canvas_1" stroke="none" stroke-opacity="1" fill="none" fill-opacity="1" stroke-dasharray="none">
    <title>Canvas 1</title>
    <g id="Canvas_1_Layer_1">
      <title>Layer 1</title>
      <g id="Group_9826">
        <g id="Group_9623">
          <g id="Graphic_9644">
            <path d="M 10606.217 5390.2394 C 10621.057 5405.079 10621.057 5429.1395 10606.217 5443.9794 C 10591.377 5458.8194 10567.317 5458.8194 10552.477 5443.9794 C 10537.637 5429.1395 10537.637 5405.079 10552.477 5390.2394 C 10567.317 5375.3994 10591.377 5375.3994 10606.217 5390.2394" fill="#ccc"/>
            <path d="M 10606.217 5390.2394 C 10621.057 5405.079 10621.057 5429.1395 10606.217 5443.9794 C 10591.377 5458.8194 10567.317 5458.8194 10552.477 5443.9794 C 10537.637 5429.1395 10537.637 5405.079 10552.477 5390.2394 C 10567.317 5375.3994 10591.377 5375.3994 10606.217 5390.2394" stroke="black" stroke-linecap="round" stroke-linejoin="round" stroke-width="3"/>
            <text transform="translate(10553.947 5402.2594)" fill="black">
              <tspan font-family="Helvetica Neue" font-size="25" fill="black" x="18.45" y="24" xml:space="preserve">5</tspan>
            </text>
          </g>
          <g id="Graphic_9643">
            <path d="M 10447.587 5390.2394 C 10462.427 5405.079 10462.427 5429.1395 10447.587 5443.9794 C 10432.747 5458.8194 10408.687 5458.8194 10393.847 5443.9794 C 10379.007 5429.1395 10379.007 5405.079 10393.847 5390.2394 C 10408.687 5375.3994 10432.747 5375.3994 10447.587 5390.2394" fill="#ccc"/>
            <path d="M 10447.587 5390.2394 C 10462.427 5405.079 10462.427 5429.1395 10447.587 5443.9794 C 10432.747 5458.8194 10408.687 5458.8194 10393.847 5443.9794 C 10379.007 5429.1395 10379.007 5405.079 10393.847 5390.2394 C 10408.687 5375.3994 10432.747 5375.3994 10447.587 5390.2394" stroke="black" stroke-linecap="round" stroke-linejoin="round" stroke-width="3"/>
            <text transform="translate(10395.317 5402.2594)" fill="black">
              <tspan font-family="Helvetica Neue" font-size="25" fill="black" x="18.45" y="24" xml:space="preserve">0</tspan>
            </text>
          </g>
          <g id="Graphic_9642">
            <path d="M 10753.587 5270.8694 C 10768.427 5285.709 10768.427 5309.7695 10753.587 5324.6094 C 10738.747 5339.4494 10714.687 5339.4494 10699.847 5324.6094 C 10685.007 5309.7695 10685.007 5285.709 10699.847 5270.8694 C 10714.687 5256.0294 10738.747 5256.0294 10753.587 5270.8694" fill="#ccc"/>
            <path d="M 10753.587 5270.8694 C 10768.427 5285.709 10768.427 5309.7695 10753.587 5324.6094 C 10738.747 5339.4494 10714.687 5339.4494 10699.847 5324.6094 C 10685.007 5309.7695 10685.007 5285.709 10699.847 5270.8694 C 10714.687 5256.0294 10738.747 5256.0294 10753.587 5270.8694" stroke="black" stroke-linecap="round" stroke-linejoin="round" stroke-width="3"/>
            <text transform="translate(10701.317 5282.8894)" fill="black">
              <tspan font-family="Helvetica Neue" font-size="25" fill="black" x="18.45" y="24" xml:space="preserve">2</tspan>
            </text>
          </g>
          <g id="Graphic_9641">
            <circle cx="10864.695" cy="5417.1094" r="38.0000607202727" fill="#ccc"/>
            <circle cx="10864.695" cy="5417.1094" r="38.0000607202727" stroke="black" stroke-linecap="round" stroke-linejoin="round" stroke-width="3"/>
            <text transform="translate(10839.295 5402.2594)" fill="black">
              <tspan font-family="Helvetica Neue" font-size="25" fill="black" x="11.5" y="24" xml:space="preserve">16</tspan>
            </text>
          </g>
          <g id="Graphic_9640">
            <path d="M 10753.587 5517.8694 C 10768.427 5532.709 10768.427 5556.7695 10753.587 5571.6094 C 10738.747 5586.4494 10714.687 5586.4494 10699.847 5571.6094 C 10685.007 5556.7695 10685.007 5532.709 10699.847 5517.8694 C 10714.687 5503.0294 10738.747 5503.0294 10753.587 5517.8694" fill="white"/>
            <path d="M 10753.587 5517.8694 C 10768.427 5532.709 10768.427 5556.7695 10753.587 5571.6094 C 10738.747 5586.4494 10714.687 5586.4494 10699.847 5571.6094 C 10685.007 5556.7695 10685.007 5532.709 10699.847 5517.8694 C 10714.687 5503.0294 10738.747 5503.0294 10753.587 5517.8694" stroke="black" stroke-linecap="round" stroke-linejoin="round" stroke-width="3"/>
            <text transform="translate(10701.317 5529.8894)" fill="black">
              <tspan font-family="Helvetica Neue" font-size="25" fill="black" x="18.45" y="24" xml:space="preserve">0</tspan>
            </text>
          </g>
          <g id="Line_9639">
            <line x1="10460.217" y1="5417.1094" x2="10523.947" y2="5417.1094" marker-end="url(#FilledArrow_Marker)" stroke="black" stroke-linecap="round" stroke-linejoin="round" stroke-width="3"/>
          </g>
          <g id="Line_9638">
            <line x1="10610.043" y1="5392.245" x2="10683.665" y2="5332.6114" marker-end="url(#FilledArrow_Marker)" stroke="black" stroke-linecap="round" stroke-linejoin="round" stroke-width="3"/>
          </g>
          <g id="Line_9637">
            <line x1="10756.59" y1="5323.584" x2="10822.797" y2="5380.862" marker-end="url(#FilledArrow_Marker)" stroke="black" stroke-linecap="round" stroke-linejoin="round" stroke-width="3"/>
          </g>
          <g id="Line_9636">
            <line x1="10609.207" y1="5442.97" x2="10684.838" y2="5508.47" marker-end="url(#FilledArrow_Marker)" stroke="black" stroke-linecap="round" stroke-linejoin="round" stroke-width="3"/>
          </g>
          <g id="Line_9635">
            <line x1="10726.717" y1="5337.2394" x2="10726.717" y2="5489.3394" marker-end="url(#FilledArrow_Marker)" stroke="black" stroke-linecap="round" stroke-linejoin="round" stroke-width="3"/>
          </g>
          <g id="Graphic_9634">
            <text transform="translate(10536.504 5355.7394)" fill="black">
              <tspan font-family="Helvetica Neue" font-size="25" fill="black" x="36415315e-20" y="24" xml:space="preserve">A</tspan>
            </text>
          </g>
          <g id="Graphic_9633">
            <text transform="translate(10718.154 5222.657)" fill="black">
              <tspan font-family="Helvetica Neue" font-size="25" fill="black" x="0" y="24" xml:space="preserve">B</tspan>
            </text>
          </g>
          <g id="Graphic_9632">
            <text transform="translate(10720.059 5588.9775)" fill="black">
              <tspan font-family="Helvetica Neue" font-size="25" fill="black" x="0" y="24" xml:space="preserve">D</tspan>
            </text>
          </g>
          <g id="Graphic_9631">
            <text transform="translate(10889.938 5355.7394)" fill="black">
              <tspan font-family="Helvetica Neue" font-size="25" fill="black" x="0" y="24" xml:space="preserve">C</tspan>
            </text>
          </g>
          <g id="Line_9630">
            <path d="M 10834.95 5443.101 L 10801.648 5472.1995 L 10766.52 5506.206" marker-end="url(#FilledArrow_Marker)" stroke="black" stroke-linecap="round" stroke-linejoin="round" stroke-width="3"/>
          </g>
          <g id="Graphic_9629">
            <rect x="10492.398" y="5397.2594" width="23.9" height="39.699997" fill="white"/>
            <text transform="translate(10497.398 5402.2594)" fill="black">
              <tspan font-family="Helvetica Neue" font-size="25" fill="black" x="7274181e-19" y="24" xml:space="preserve">1</tspan>
            </text>
          </g>
          <g id="Graphic_9628">
            <rect x="10625.645" y="5341.6344" width="44.75" height="39.699997" fill="white"/>
            <text transform="translate(10630.645 5346.6344)" fill="black">
              <tspan font-family="Helvetica Neue" font-size="25" fill="black" x="0" y="24" xml:space="preserve">0.6</tspan>
            </text>
          </g>
          <g id="Graphic_9627">
            <rect x="10627.388" y="5458.2436" width="44.75" height="39.699997" fill="white"/>
            <text transform="translate(10632.388 5463.2436)" fill="black">
              <tspan font-family="Helvetica Neue" font-size="25" fill="black" x="0" y="24" xml:space="preserve">0.4</tspan>
            </text>
          </g>
          <g id="Graphic_9626">
            <rect x="10769.701" y="5334.434" width="44.75" height="39.699997" fill="white"/>
            <text transform="translate(10774.701 5339.434)" fill="black">
              <tspan font-family="Helvetica Neue" font-size="25" fill="black" x="0" y="24" xml:space="preserve">0.5</tspan>
            </text>
          </g>
          <g id="Graphic_9625">
            <rect x="10704.342" y="5425.432" width="44.75" height="39.699997" fill="white"/>
            <text transform="translate(10709.342 5430.432)" fill="black">
              <tspan font-family="Helvetica Neue" font-size="25" fill="black" x="0" y="24" xml:space="preserve">0.5</tspan>
            </text>
          </g>
          <g id="Graphic_9624">
            <rect x="10785.228" y="5456.6774" width="23.9" height="39.699997" fill="white"/>
            <text transform="translate(10790.228 5461.6774)" fill="black">
              <tspan font-family="Helvetica Neue" font-size="25" fill="black" x="7274181e-19" y="24" xml:space="preserve">1</tspan>
            </text>
          </g>
        </g>
        <g id="Group_9645">
          <g id="Graphic_9666">
            <path d="M 11299.455 5390.2394 C 11314.295 5405.079 11314.295 5429.1395 11299.455 5443.9794 C 11284.615 5458.8194 11260.555 5458.8194 11245.715 5443.9794 C 11230.875 5429.1395 11230.875 5405.079 11245.715 5390.2394 C 11260.555 5375.3994 11284.615 5375.3994 11299.455 5390.2394" fill="#ccc"/>
            <path d="M 11299.455 5390.2394 C 11314.295 5405.079 11314.295 5429.1395 11299.455 5443.9794 C 11284.615 5458.8194 11260.555 5458.8194 11245.715 5443.9794 C 11230.875 5429.1395 11230.875 5405.079 11245.715 5390.2394 C 11260.555 5375.3994 11284.615 5375.3994 11299.455 5390.2394" stroke="black" stroke-linecap="round" stroke-linejoin="round" stroke-width="3"/>
            <text transform="translate(11247.185 5402.2594)" fill="black">
              <tspan font-family="Helvetica Neue" font-size="25" fill="black" x="18.45" y="24" xml:space="preserve">5</tspan>
            </text>
          </g>
          <g id="Graphic_9665">
            <circle cx="11113.955" cy="5417.1094" r="38.0000607202728" fill="#ccc"/>
            <circle cx="11113.955" cy="5417.1094" r="38.0000607202728" stroke="black" stroke-linecap="round" stroke-linejoin="round" stroke-width="3"/>
            <text transform="translate(11088.555 5402.2594)" fill="black">
              <tspan font-family="Helvetica Neue" font-size="25" fill="black" x="18.45" y="24" xml:space="preserve">0</tspan>
            </text>
          </g>
          <g id="Graphic_9664">
            <path d="M 11446.825 5270.8694 C 11461.665 5285.709 11461.665 5309.7695 11446.825 5324.6094 C 11431.985 5339.4494 11407.925 5339.4494 11393.085 5324.6094 C 11378.245 5309.7695 11378.245 5285.709 11393.085 5270.8694 C 11407.925 5256.0294 11431.985 5256.0294 11446.825 5270.8694" fill="#ccc"/>
            <path d="M 11446.825 5270.8694 C 11461.665 5285.709 11461.665 5309.7695 11446.825 5324.6094 C 11431.985 5339.4494 11407.925 5339.4494 11393.085 5324.6094 C 11378.245 5309.7695 11378.245 5285.709 11393.085 5270.8694 C 11407.925 5256.0294 11431.985 5256.0294 11446.825 5270.8694" stroke="black" stroke-linecap="round" stroke-linejoin="round" stroke-width="3"/>
            <text transform="translate(11394.555 5282.8894)" fill="black">
              <tspan font-family="Helvetica Neue" font-size="25" fill="black" x="18.45" y="24" xml:space="preserve">2</tspan>
            </text>
          </g>
          <g id="Graphic_9663">
            <path d="M 11584.804 5390.2394 C 11599.644 5405.079 11599.644 5429.1395 11584.804 5443.9794 C 11569.964 5458.8194 11545.903 5458.8194 11531.064 5443.9794 C 11516.224 5429.1395 11516.224 5405.079 11531.064 5390.2394 C 11545.903 5375.3994 11569.964 5375.3994 11584.804 5390.2394" fill="#ccc"/>
            <path d="M 11584.804 5390.2394 C 11599.644 5405.079 11599.644 5429.1395 11584.804 5443.9794 C 11569.964 5458.8194 11545.903 5458.8194 11531.064 5443.9794 C 11516.224 5429.1395 11516.224 5405.079 11531.064 5390.2394 C 11545.903 5375.3994 11569.964 5375.3994 11584.804 5390.2394" stroke="black" stroke-linecap="round" stroke-linejoin="round" stroke-width="3"/>
            <text transform="translate(11532.534 5402.2594)" fill="black">
              <tspan font-family="Helvetica Neue" font-size="25" fill="black" x="11.5" y="24" xml:space="preserve">16</tspan>
            </text>
          </g>
          <g id="Graphic_9662">
            <path d="M 11446.825 5517.8694 C 11461.665 5532.709 11461.665 5556.7695 11446.825 5571.6094 C 11431.985 5586.4494 11407.925 5586.4494 11393.085 5571.6094 C 11378.245 5556.7695 11378.245 5532.709 11393.085 5517.8694 C 11407.925 5503.0294 11431.985 5503.0294 11446.825 5517.8694" fill="#ccc"/>
            <path d="M 11446.825 5517.8694 C 11461.665 5532.709 11461.665 5556.7695 11446.825 5571.6094 C 11431.985 5586.4494 11407.925 5586.4494 11393.085 5571.6094 C 11378.245 5556.7695 11378.245 5532.709 11393.085 5517.8694 C 11407.925 5503.0294 11431.985 5503.0294 11446.825 5517.8694" stroke="black" stroke-linecap="round" stroke-linejoin="round" stroke-width="3"/>
            <text transform="translate(11394.555 5529.8894)" fill="black">
              <tspan font-family="Helvetica Neue" font-size="25" fill="black" x="18.45" y="24" xml:space="preserve">0</tspan>
            </text>
          </g>
          <g id="Line_9661">
            <line x1="11153.455" y1="5417.1094" x2="11217.185" y2="5417.1094" marker-end="url(#FilledArrow_Marker)" stroke="black" stroke-linecap="round" stroke-linejoin="round" stroke-width="3"/>
          </g>
          <g id="Line_9660">
            <line x1="11303.282" y1="5392.245" x2="11376.904" y2="5332.6114" marker-end="url(#FilledArrow_Marker)" stroke="black" stroke-linecap="round" stroke-linejoin="round" stroke-width="3"/>
          </g>
          <g id="Line_9659">
            <line x1="11449.829" y1="5323.584" x2="11516.035" y2="5380.862" marker-end="url(#FilledArrow_Marker)" stroke="black" stroke-linecap="round" stroke-linejoin="round" stroke-width="3"/>
          </g>
          <g id="Line_9658">
            <line x1="11302.445" y1="5442.97" x2="11378.076" y2="5508.47" marker-end="url(#FilledArrow_Marker)" stroke="black" stroke-linecap="round" stroke-linejoin="round" stroke-width="3"/>
          </g>
          <g id="Line_9657">
            <line x1="11419.955" y1="5337.2394" x2="11419.955" y2="5489.3394" marker-end="url(#FilledArrow_Marker)" stroke="black" stroke-linecap="round" stroke-linejoin="round" stroke-width="3"/>
          </g>
          <g id="Graphic_9656">
            <text transform="translate(11229.742 5355.7394)" fill="black">
              <tspan font-family="Helvetica Neue" font-size="25" fill="black" x="36415315e-20" y="24" xml:space="preserve">A</tspan>
            </text>
          </g>
          <g id="Graphic_9655">
            <text transform="translate(11411.393 5222.657)" fill="black">
              <tspan font-family="Helvetica Neue" font-size="25" fill="black" x="0" y="24" xml:space="preserve">B</tspan>
            </text>
          </g>
          <g id="Graphic_9654">
            <text transform="translate(11413.297 5588.9775)" fill="black">
              <tspan font-family="Helvetica Neue" font-size="25" fill="black" x="0" y="24" xml:space="preserve">D</tspan>
            </text>
          </g>
          <g id="Graphic_9653">
            <text transform="translate(11583.176 5355.7394)" fill="black">
              <tspan font-family="Helvetica Neue" font-size="25" fill="black" x="0" y="24" xml:space="preserve">C</tspan>
            </text>
          </g>
          <g id="Line_9652">
            <path d="M 11528.188 5443.101 L 11494.887 5472.1995 L 11459.759 5506.206" marker-end="url(#FilledArrow_Marker)" stroke="black" stroke-linecap="round" stroke-linejoin="round" stroke-width="3"/>
          </g>
          <g id="Graphic_9651">
            <rect x="11185.636" y="5397.2594" width="23.9" height="39.699997" fill="white"/>
            <text transform="translate(11190.636 5402.2594)" fill="black">
              <tspan font-family="Helvetica Neue" font-size="25" fill="black" x="7274181e-19" y="24" xml:space="preserve">1</tspan>
            </text>
          </g>
          <g id="Graphic_9650">
            <rect x="11318.883" y="5341.6344" width="44.75" height="39.699997" fill="white"/>
            <text transform="translate(11323.883 5346.6344)" fill="black">
              <tspan font-family="Helvetica Neue" font-size="25" fill="black" x="0" y="24" xml:space="preserve">0.6</tspan>
            </text>
          </g>
          <g id="Graphic_9649">
            <rect x="11320.627" y="5458.2436" width="44.75" height="39.699997" fill="white"/>
            <text transform="translate(11325.627 5463.2436)" fill="black">
              <tspan font-family="Helvetica Neue" font-size="25" fill="black" x="0" y="24" xml:space="preserve">0.4</tspan>
            </text>
          </g>
          <g id="Graphic_9648">
            <rect x="11462.939" y="5334.434" width="44.75" height="39.699997" fill="white"/>
            <text transform="translate(11467.939 5339.434)" fill="black">
              <tspan font-family="Helvetica Neue" font-size="25" fill="black" x="0" y="24" xml:space="preserve">0.5</tspan>
            </text>
          </g>
          <g id="Graphic_9647">
            <rect x="11397.58" y="5425.432" width="44.75" height="39.699997" fill="white"/>
            <text transform="translate(11402.58 5430.432)" fill="black">
              <tspan font-family="Helvetica Neue" font-size="25" fill="black" x="0" y="24" xml:space="preserve">0.5</tspan>
            </text>
          </g>
          <g id="Graphic_9646">
            <rect x="11478.466" y="5456.6774" width="23.9" height="39.699997" fill="white"/>
            <text transform="translate(11483.466 5461.6774)" fill="black">
              <tspan font-family="Helvetica Neue" font-size="25" fill="black" x="7274181e-19" y="24" xml:space="preserve">1</tspan>
            </text>
          </g>
        </g>
      </g>
    </g>
  </g>
</svg>
