<?xml version="1.0" encoding="UTF-8" standalone="no"?>
<!DOCTYPE svg PUBLIC "-//W3C//DTD SVG 1.1//EN" "http://www.w3.org/Graphics/SVG/1.1/DTD/svg11.dtd">
<svg xmlns:dc="http://purl.org/dc/elements/1.1/" xmlns="http://www.w3.org/2000/svg" xmlns:xl="http://www.w3.org/1999/xlink" version="1.1" viewBox="10381.217 3607.856 1225.0096 406.02053" width="1225.0096" height="406.02053">
  <defs>
    <marker orient="auto" overflow="visible" markerUnits="strokeWidth" id="FilledArrow_Marker" stroke-linejoin="miter" stroke-miterlimit="10" viewBox="-1 -3 6 6" markerWidth="6" markerHeight="6" color="black">
      <g>
        <path d="M 3.7333333 0 L 0 -1.4 L 0 1.4 Z" fill="currentColor" stroke="currentColor" stroke-width="1"/>
      </g>
    </marker>
    <marker orient="auto" overflow="visible" markerUnits="strokeWidth" id="FilledArrow_Marker_2" stroke-linejoin="miter" stroke-miterlimit="10" viewBox="-5 -3 6 6" markerWidth="6" markerHeight="6" color="black">
      <g>
        <path d="M -3.7333333 0 L 0 1.4 L 0 -1.4 Z" fill="currentColor" stroke="currentColor" stroke-width="1"/>
      </g>
    </marker>
    <marker orient="auto" overflow="visible" markerUnits="strokeWidth" id="FilledArrow_Marker_3" stroke-linejoin="miter" stroke-miterlimit="10" viewBox="-5 -3 6 6" markerWidth="6" markerHeight="6" color="#ff2600">
      <g>
        <path d="M -3.2 0 L 0 1.2 L 0 -1.2 Z" fill="currentColor" stroke="currentColor" stroke-width="1"/>
      </g>
    </marker>
    <marker orient="auto" overflow="visible" markerUnits="strokeWidth" id="FilledArrow_Marker_4" stroke-linejoin="miter" stroke-miterlimit="10" viewBox="-5 -3 6 6" markerWidth="6" markerHeight="6" color="#00b03d">
      <g>
        <path d="M -3.2 0 L 0 1.2 L 0 -1.2 Z" fill="currentColor" stroke="currentColor" stroke-width="1"/>
      </g>
    </marker>
    <marker orient="auto" overflow="visible" markerUnits="strokeWidth" id="FilledArrow_Marker_5" stroke-linejoin="miter" stroke-miterlimit="10" viewBox="-1 -3 6 6" markerWidth="6" markerHeight="6" color="#00b03d">
      <g>
        <path d="M 3.2 0 L 0 -1.2 L 0 1.2 Z" fill="currentColor" stroke="currentColor" stroke-width="1"/>
      </g>
    </marker>
  </defs>
  <g id="Canvas_1" stroke="none" stroke-opacity="1" fill="none" fill-opacity="1" stroke-dasharray="none">
    <title>Canvas 1</title>
    <g id="Canvas_1_Layer_1">
      <title>Layer 1</title>
      <g id="Group_9823">
        <g id="Group_9501">
          <g id="Graphic_9526">
            <circle cx="10579.347" cy="3807.3083" r="38.0000607202729" fill="#ccc"/>
            <circle cx="10579.347" cy="3807.3083" r="38.0000607202729" stroke="black" stroke-linecap="round" stroke-linejoin="round" stroke-width="3"/>
            <text transform="translate(10553.947 3792.4583)" fill="black">
              <tspan font-family="Helvetica Neue" font-size="25" fill="black" x="18.45" y="24" xml:space="preserve">5</tspan>
            </text>
          </g>
          <g id="Graphic_9525">
            <circle cx="10420.717" cy="3807.3083" r="38.0000607202729" fill="#ccc"/>
            <circle cx="10420.717" cy="3807.3083" r="38.0000607202729" stroke="black" stroke-linecap="round" stroke-linejoin="round" stroke-width="3"/>
            <text transform="translate(10395.317 3792.4583)" fill="black">
              <tspan font-family="Helvetica Neue" font-size="25" fill="black" x="18.45" y="24" xml:space="preserve">0</tspan>
            </text>
          </g>
          <g id="Graphic_9524">
            <path d="M 10753.587 3661.0682 C 10768.427 3675.908 10768.427 3699.9684 10753.587 3714.8083 C 10738.747 3729.6483 10714.687 3729.6483 10699.847 3714.8083 C 10685.007 3699.9684 10685.007 3675.908 10699.847 3661.0682 C 10714.687 3646.2282 10738.747 3646.2282 10753.587 3661.0682" fill="white"/>
            <path d="M 10753.587 3661.0682 C 10768.427 3675.908 10768.427 3699.9684 10753.587 3714.8083 C 10738.747 3729.6483 10714.687 3729.6483 10699.847 3714.8083 C 10685.007 3699.9684 10685.007 3675.908 10699.847 3661.0682 C 10714.687 3646.2282 10738.747 3646.2282 10753.587 3661.0682" stroke="black" stroke-linecap="round" stroke-linejoin="round" stroke-width="3"/>
            <text transform="translate(10701.317 3673.0883)" fill="black">
              <tspan font-family="Helvetica Neue" font-size="25" fill="black" x="18.45" y="24" xml:space="preserve">2</tspan>
            </text>
          </g>
          <g id="Graphic_9523">
            <path d="M 10891.565 3780.438 C 10906.405 3795.278 10906.405 3819.3384 10891.565 3834.1783 C 10876.725 3849.0183 10852.665 3849.0183 10837.825 3834.1783 C 10822.985 3819.3384 10822.985 3795.278 10837.825 3780.438 C 10852.665 3765.5982 10876.725 3765.5982 10891.565 3780.438" fill="white"/>
            <path d="M 10891.565 3780.438 C 10906.405 3795.278 10906.405 3819.3384 10891.565 3834.1783 C 10876.725 3849.0183 10852.665 3849.0183 10837.825 3834.1783 C 10822.985 3819.3384 10822.985 3795.278 10837.825 3780.438 C 10852.665 3765.5982 10876.725 3765.5982 10891.565 3780.438" stroke="black" stroke-linecap="round" stroke-linejoin="round" stroke-width="3"/>
            <text transform="translate(10839.295 3792.4583)" fill="black">
              <tspan font-family="Helvetica Neue" font-size="25" fill="black" x="11.5" y="24" xml:space="preserve">10</tspan>
            </text>
          </g>
          <g id="Graphic_9522">
            <path d="M 10753.587 3908.068 C 10768.427 3922.908 10768.427 3946.9684 10753.587 3961.8083 C 10738.747 3976.6483 10714.687 3976.6483 10699.847 3961.8083 C 10685.007 3946.9684 10685.007 3922.908 10699.847 3908.068 C 10714.687 3893.2282 10738.747 3893.2282 10753.587 3908.068" fill="white"/>
            <path d="M 10753.587 3908.068 C 10768.427 3922.908 10768.427 3946.9684 10753.587 3961.8083 C 10738.747 3976.6483 10714.687 3976.6483 10699.847 3961.8083 C 10685.007 3946.9684 10685.007 3922.908 10699.847 3908.068 C 10714.687 3893.2282 10738.747 3893.2282 10753.587 3908.068" stroke="black" stroke-linecap="round" stroke-linejoin="round" stroke-width="3"/>
            <text transform="translate(10701.317 3920.0883)" fill="black">
              <tspan font-family="Helvetica Neue" font-size="25" fill="black" x="18.45" y="24" xml:space="preserve">0</tspan>
            </text>
          </g>
          <g id="Line_9521">
            <line x1="10460.217" y1="3807.3083" x2="10523.947" y2="3807.3083" marker-end="url(#FilledArrow_Marker)" stroke="black" stroke-linecap="round" stroke-linejoin="round" stroke-width="3"/>
          </g>
          <g id="Line_9520">
            <line x1="10610.043" y1="3782.444" x2="10683.665" y2="3722.8102" marker-end="url(#FilledArrow_Marker)" stroke="black" stroke-linecap="round" stroke-linejoin="round" stroke-width="3"/>
          </g>
          <g id="Line_9518">
            <line x1="10756.59" y1="3713.783" x2="10822.797" y2="3771.0607" marker-end="url(#FilledArrow_Marker)" stroke="black" stroke-linecap="round" stroke-linejoin="round" stroke-width="3"/>
          </g>
          <g id="Line_9517">
            <line x1="10609.207" y1="3833.1686" x2="10684.838" y2="3898.6687" marker-end="url(#FilledArrow_Marker)" stroke="black" stroke-linecap="round" stroke-linejoin="round" stroke-width="3"/>
          </g>
          <g id="Line_9516">
            <line x1="10726.717" y1="3727.4383" x2="10726.717" y2="3879.5382" marker-end="url(#FilledArrow_Marker)" stroke="black" stroke-linecap="round" stroke-linejoin="round" stroke-width="3"/>
          </g>
          <g id="Graphic_9515">
            <text transform="translate(10536.504 3745.9383)" fill="black">
              <tspan font-family="Helvetica Neue" font-size="25" fill="black" x="36415315e-20" y="24" xml:space="preserve">A</tspan>
            </text>
          </g>
          <g id="Graphic_9514">
            <text transform="translate(10718.154 3612.856)" fill="black">
              <tspan font-family="Helvetica Neue" font-size="25" fill="black" x="0" y="24" xml:space="preserve">B</tspan>
            </text>
          </g>
          <g id="Graphic_9513">
            <text transform="translate(10720.059 3979.1763)" fill="black">
              <tspan font-family="Helvetica Neue" font-size="25" fill="black" x="0" y="24" xml:space="preserve">D</tspan>
            </text>
          </g>
          <g id="Graphic_9512">
            <text transform="translate(10889.938 3745.9383)" fill="black">
              <tspan font-family="Helvetica Neue" font-size="25" fill="black" x="0" y="24" xml:space="preserve">C</tspan>
            </text>
          </g>
          <g id="Line_9511">
            <path d="M 10744.858 3740.223 C 10751.602 3754.116 10760.376 3767.9413 10771.425 3777.6674 C 10786.108 3790.5914 10807.159 3797.901 10825.548 3802.025" marker-start="url(#FilledArrow_Marker_2)" stroke="black" stroke-linecap="round" stroke-linejoin="round" stroke-width="3"/>
          </g>
          <g id="Line_9510">
            <path d="M 10834.95 3833.3 L 10801.648 3862.3983 L 10766.52 3896.405" marker-end="url(#FilledArrow_Marker)" stroke="black" stroke-linecap="round" stroke-linejoin="round" stroke-width="3"/>
          </g>
          <g id="Graphic_9509">
            <rect x="10492.398" y="3787.4583" width="23.9" height="39.699997" fill="white"/>
            <text transform="translate(10497.398 3792.4583)" fill="#0432ff">
              <tspan font-family="Helvetica Neue" font-size="25" fill="#0432ff" x="7274181e-19" y="24" xml:space="preserve">1</tspan>
            </text>
          </g>
          <g id="Graphic_9508">
            <rect x="10625.645" y="3731.833" width="44.75" height="39.699997" fill="white"/>
            <text transform="translate(10630.645 3736.833)" fill="black">
              <tspan font-family="Helvetica Neue" font-size="25" fill="black" x="0" y="24" xml:space="preserve">0.6</tspan>
            </text>
          </g>
          <g id="Graphic_9507">
            <rect x="10627.388" y="3848.4424" width="44.75" height="39.699997" fill="white"/>
            <text transform="translate(10632.388 3853.4424)" fill="black">
              <tspan font-family="Helvetica Neue" font-size="25" fill="black" x="0" y="24" xml:space="preserve">0.4</tspan>
            </text>
          </g>
          <g id="Graphic_9506">
            <rect x="10769.701" y="3724.6326" width="44.75" height="39.699997" fill="white"/>
            <text transform="translate(10774.701 3729.6326)" fill="black">
              <tspan font-family="Helvetica Neue" font-size="25" fill="black" x="0" y="24" xml:space="preserve">0.5</tspan>
            </text>
          </g>
          <g id="Graphic_9505">
            <rect x="10748.98" y="3757.756" width="44.75" height="39.699997" fill="white"/>
            <text transform="translate(10753.98 3762.756)" fill="black">
              <tspan font-family="Helvetica Neue" font-size="25" fill="black" x="0" y="24" xml:space="preserve">0.6</tspan>
            </text>
          </g>
          <g id="Graphic_9503">
            <rect x="10704.342" y="3815.631" width="44.75" height="39.699997" fill="white"/>
            <text transform="translate(10709.342 3820.631)" fill="black">
              <tspan font-family="Helvetica Neue" font-size="25" fill="black" x="0" y="24" xml:space="preserve">0.5</tspan>
            </text>
          </g>
          <g id="Graphic_9502">
            <rect x="10774.803" y="3846.8762" width="44.75" height="39.699997" fill="white"/>
            <text transform="translate(10779.803 3851.8762)" fill="black">
              <tspan font-family="Helvetica Neue" font-size="25" fill="black" x="0" y="24" xml:space="preserve">0.4</tspan>
            </text>
          </g>
        </g>
        <g id="Group_9475">
          <g id="Graphic_9500">
            <path d="M 11299.455 3780.438 C 11314.295 3795.278 11314.295 3819.3384 11299.455 3834.1783 C 11284.615 3849.0183 11260.555 3849.0183 11245.715 3834.1783 C 11230.875 3819.3384 11230.875 3795.278 11245.715 3780.438 C 11260.555 3765.5982 11284.615 3765.5982 11299.455 3780.438" fill="#ccc"/>
            <path d="M 11299.455 3780.438 C 11314.295 3795.278 11314.295 3819.3384 11299.455 3834.1783 C 11284.615 3849.0183 11260.555 3849.0183 11245.715 3834.1783 C 11230.875 3819.3384 11230.875 3795.278 11245.715 3780.438 C 11260.555 3765.5982 11284.615 3765.5982 11299.455 3780.438" stroke="black" stroke-linecap="round" stroke-linejoin="round" stroke-width="3"/>
            <text transform="translate(11247.185 3792.4583)" fill="black">
              <tspan font-family="Helvetica Neue" font-size="25" fill="black" x="18.45" y="24" xml:space="preserve">5</tspan>
            </text>
          </g>
          <g id="Graphic_9499">
            <circle cx="11113.955" cy="3807.3083" r="38.0000607202729" fill="#ccc"/>
            <circle cx="11113.955" cy="3807.3083" r="38.0000607202729" stroke="black" stroke-linecap="round" stroke-linejoin="round" stroke-width="3"/>
            <text transform="translate(11088.555 3792.4583)" fill="black">
              <tspan font-family="Helvetica Neue" font-size="25" fill="black" x="18.45" y="24" xml:space="preserve">0</tspan>
            </text>
          </g>
          <g id="Graphic_9498">
            <circle cx="11419.955" cy="3687.9383" r="38.0000607202717" fill="#ccc"/>
            <circle cx="11419.955" cy="3687.9383" r="38.0000607202717" stroke="black" stroke-linecap="round" stroke-linejoin="round" stroke-width="3"/>
            <text transform="translate(11394.555 3673.0883)" fill="black">
              <tspan font-family="Helvetica Neue" font-size="25" fill="black" x="18.45" y="24" xml:space="preserve">2</tspan>
            </text>
          </g>
          <g id="Graphic_9497">
            <circle cx="11557.934" cy="3807.3083" r="38.0000607202716" fill="white"/>
            <circle cx="11557.934" cy="3807.3083" r="38.0000607202716" stroke="black" stroke-linecap="round" stroke-linejoin="round" stroke-width="3"/>
            <text transform="translate(11532.534 3792.4457)" fill="black">
              <tspan font-family="Helvetica Neue" font-weight="bold" font-size="25" fill="black" x="1.0749996" y="24" xml:space="preserve">11.2</tspan>
            </text>
          </g>
          <g id="Graphic_9496">
            <path d="M 11446.825 3908.068 C 11461.665 3922.908 11461.665 3946.9684 11446.825 3961.8083 C 11431.985 3976.6483 11407.925 3976.6483 11393.085 3961.8083 C 11378.245 3946.9684 11378.245 3922.908 11393.085 3908.068 C 11407.925 3893.2282 11431.985 3893.2282 11446.825 3908.068" fill="white"/>
            <path d="M 11446.825 3908.068 C 11461.665 3922.908 11461.665 3946.9684 11446.825 3961.8083 C 11431.985 3976.6483 11407.925 3976.6483 11393.085 3961.8083 C 11378.245 3946.9684 11378.245 3922.908 11393.085 3908.068 C 11407.925 3893.2282 11431.985 3893.2282 11446.825 3908.068" stroke="black" stroke-linecap="round" stroke-linejoin="round" stroke-width="3"/>
            <text transform="translate(11394.555 3920.0883)" fill="black">
              <tspan font-family="Helvetica Neue" font-size="25" fill="black" x="18.45" y="24" xml:space="preserve">0</tspan>
            </text>
          </g>
          <g id="Line_9495">
            <line x1="11153.455" y1="3807.3083" x2="11217.185" y2="3807.3083" marker-end="url(#FilledArrow_Marker)" stroke="black" stroke-linecap="round" stroke-linejoin="round" stroke-width="3"/>
          </g>
          <g id="Line_9494">
            <line x1="11303.282" y1="3782.444" x2="11376.904" y2="3722.8102" marker-end="url(#FilledArrow_Marker)" stroke="black" stroke-linecap="round" stroke-linejoin="round" stroke-width="3"/>
          </g>
          <g id="Line_9493">
            <line x1="11449.829" y1="3713.783" x2="11516.035" y2="3771.0607" marker-end="url(#FilledArrow_Marker)" stroke="black" stroke-linecap="round" stroke-linejoin="round" stroke-width="3"/>
          </g>
          <g id="Line_9492">
            <line x1="11302.445" y1="3833.1686" x2="11378.076" y2="3898.6687" marker-end="url(#FilledArrow_Marker)" stroke="black" stroke-linecap="round" stroke-linejoin="round" stroke-width="3"/>
          </g>
          <g id="Line_9491">
            <line x1="11419.955" y1="3727.4383" x2="11419.955" y2="3879.5382" marker-end="url(#FilledArrow_Marker)" stroke="black" stroke-linecap="round" stroke-linejoin="round" stroke-width="3"/>
          </g>
          <g id="Graphic_9490">
            <text transform="translate(11229.742 3745.9383)" fill="black">
              <tspan font-family="Helvetica Neue" font-size="25" fill="black" x="36415315e-20" y="24" xml:space="preserve">A</tspan>
            </text>
          </g>
          <g id="Graphic_9489">
            <text transform="translate(11411.393 3612.856)" fill="black">
              <tspan font-family="Helvetica Neue" font-size="25" fill="black" x="0" y="24" xml:space="preserve">B</tspan>
            </text>
          </g>
          <g id="Graphic_9488">
            <text transform="translate(11413.297 3979.1763)" fill="black">
              <tspan font-family="Helvetica Neue" font-size="25" fill="black" x="0" y="24" xml:space="preserve">D</tspan>
            </text>
          </g>
          <g id="Graphic_9487">
            <text transform="translate(11583.176 3745.9383)" fill="black">
              <tspan font-family="Helvetica Neue" font-size="25" fill="black" x="0" y="24" xml:space="preserve">C</tspan>
            </text>
          </g>
          <g id="Line_9486">
            <path d="M 11439.427 3742.9084 C 11445.982 3755.882 11454.327 3768.5685 11464.664 3777.6674 C 11496.41 3805.612 11497.385 3796.1914 11497.385 3796.1914 C 11497.385 3796.1914 11507.285 3798.009 11519.08 3800.1745" marker-start="url(#FilledArrow_Marker_3)" stroke="#ff2600" stroke-linecap="round" stroke-linejoin="round" stroke-dasharray="16.0,16.0" stroke-width="4"/>
          </g>
          <g id="Line_9485">
            <path d="M 11545.975 3753.2115 C 11543.932 3741.224 11542.811 3730.672 11544.029 3725.9383 C 11547.698 3711.672 11566.009 3708.933 11573.496 3725.7064 C 11577.25 3734.1163 11574.44 3754.5757 11570.147 3772.903" marker-start="url(#FilledArrow_Marker_4)" stroke="#00b03d" stroke-linecap="round" stroke-linejoin="round" stroke-width="4"/>
          </g>
          <g id="Line_9484">
            <path d="M 11528.188 3833.3 L 11494.887 3862.3983 L 11461.914 3894.318" marker-end="url(#FilledArrow_Marker_5)" stroke="#00b03d" stroke-linecap="round" stroke-linejoin="round" stroke-width="4"/>
          </g>
          <g id="Graphic_9483">
            <rect x="11185.636" y="3787.4583" width="23.9" height="39.699997" fill="white"/>
            <text transform="translate(11190.636 3792.4583)" fill="black">
              <tspan font-family="Helvetica Neue" font-size="25" fill="black" x="7274181e-19" y="24" xml:space="preserve">1</tspan>
            </text>
          </g>
          <g id="Graphic_9482">
            <rect x="11318.883" y="3731.833" width="44.75" height="39.699997" fill="white"/>
            <text transform="translate(11323.883 3736.833)" fill="black">
              <tspan font-family="Helvetica Neue" font-size="25" fill="black" x="0" y="24" xml:space="preserve">0.6</tspan>
            </text>
          </g>
          <g id="Graphic_9481">
            <rect x="11320.627" y="3848.4424" width="44.75" height="39.699997" fill="white"/>
            <text transform="translate(11325.627 3853.4424)" fill="black">
              <tspan font-family="Helvetica Neue" font-size="25" fill="black" x="0" y="24" xml:space="preserve">0.4</tspan>
            </text>
          </g>
          <g id="Graphic_9480">
            <rect x="11462.939" y="3724.6326" width="44.75" height="39.699997" fill="white"/>
            <text transform="translate(11467.939 3729.6326)" fill="black">
              <tspan font-family="Helvetica Neue" font-size="25" fill="black" x="0" y="24" xml:space="preserve">0.5</tspan>
            </text>
          </g>
          <g id="Graphic_9479">
            <rect x="11444.041" y="3759.3496" width="44.75" height="39.699997" fill="white"/>
            <text transform="translate(11449.041 3764.3496)" fill="black">
              <tspan font-family="Helvetica Neue" font-size="25" fill="black" x="0" y="24" xml:space="preserve">0.6</tspan>
            </text>
          </g>
          <g id="Graphic_9478">
            <rect x="11397.58" y="3815.631" width="44.75" height="39.699997" fill="white"/>
            <text transform="translate(11402.58 3820.631)" fill="black">
              <tspan font-family="Helvetica Neue" font-size="25" fill="black" x="0" y="24" xml:space="preserve">0.5</tspan>
            </text>
          </g>
          <g id="Graphic_9477">
            <text transform="translate(11548.576 3685.866)" fill="black">
              <tspan font-family="Helvetica Neue" font-size="25" fill="black" x="0" y="24" xml:space="preserve">0.3</tspan>
            </text>
          </g>
          <g id="Graphic_9476">
            <rect x="11468.041" y="3846.8636" width="44.75" height="39.725174" fill="white"/>
            <text transform="translate(11473.041 3851.8636)" fill="black">
              <tspan font-family="Helvetica Neue" font-weight="bold" font-size="25" fill="black" x="0" y="24" xml:space="preserve">0.7</tspan>
            </text>
          </g>
        </g>
      </g>
    </g>
  </g>
</svg>
