<?xml version="1.0" encoding="UTF-8"?>
<svg xmlns="http://www.w3.org/2000/svg" xmlns:xlink="http://www.w3.org/1999/xlink" width="862.0082pt" height="286.6318pt" viewBox="0 0 862.0082 286.6318">
<defs>
<g>
<g id="glyph-0-0">
<path d="M 10.21875 -8.78125 L 11.890625 -8.78125 C 11.796875 -9.457031 11.59375 -10.050781 11.28125 -10.5625 C 10.976562 -11.070312 10.597656 -11.492188 10.140625 -11.828125 C 9.679688 -12.171875 9.15625 -12.429688 8.5625 -12.609375 C 7.976562 -12.785156 7.359375 -12.875 6.703125 -12.875 C 5.742188 -12.875 4.890625 -12.695312 4.140625 -12.34375 C 3.398438 -12 2.78125 -11.523438 2.28125 -10.921875 C 1.78125 -10.328125 1.398438 -9.628906 1.140625 -8.828125 C 0.878906 -8.023438 0.75 -7.164062 0.75 -6.25 C 0.75 -5.332031 0.867188 -4.472656 1.109375 -3.671875 C 1.359375 -2.878906 1.722656 -2.1875 2.203125 -1.59375 C 2.679688 -1.007812 3.285156 -0.550781 4.015625 -0.21875 C 4.742188 0.113281 5.59375 0.28125 6.5625 0.28125 C 8.175781 0.28125 9.445312 -0.15625 10.375 -1.03125 C 11.300781 -1.914062 11.847656 -3.148438 12.015625 -4.734375 L 10.34375 -4.734375 C 10.300781 -4.222656 10.191406 -3.742188 10.015625 -3.296875 C 9.835938 -2.847656 9.59375 -2.460938 9.28125 -2.140625 C 8.976562 -1.816406 8.609375 -1.5625 8.171875 -1.375 C 7.742188 -1.195312 7.253906 -1.109375 6.703125 -1.109375 C 5.953125 -1.109375 5.304688 -1.25 4.765625 -1.53125 C 4.234375 -1.8125 3.789062 -2.1875 3.4375 -2.65625 C 3.09375 -3.132812 2.835938 -3.691406 2.671875 -4.328125 C 2.515625 -4.972656 2.4375 -5.65625 2.4375 -6.375 C 2.4375 -7.03125 2.515625 -7.660156 2.671875 -8.265625 C 2.835938 -8.878906 3.09375 -9.425781 3.4375 -9.90625 C 3.789062 -10.382812 4.234375 -10.765625 4.765625 -11.046875 C 5.296875 -11.328125 5.9375 -11.46875 6.6875 -11.46875 C 7.570312 -11.46875 8.332031 -11.242188 8.96875 -10.796875 C 9.613281 -10.347656 10.03125 -9.675781 10.21875 -8.78125 Z M 10.21875 -8.78125 "/>
</g>
<g id="glyph-0-1">
<path d="M 8.640625 -8.890625 L 10.234375 -8.890625 C 10.210938 -9.585938 10.078125 -10.179688 9.828125 -10.671875 C 9.585938 -11.171875 9.257812 -11.585938 8.84375 -11.921875 C 8.425781 -12.253906 7.941406 -12.492188 7.390625 -12.640625 C 6.835938 -12.796875 6.238281 -12.875 5.59375 -12.875 C 5.019531 -12.875 4.457031 -12.800781 3.90625 -12.65625 C 3.363281 -12.507812 2.878906 -12.285156 2.453125 -11.984375 C 2.023438 -11.679688 1.679688 -11.296875 1.421875 -10.828125 C 1.160156 -10.367188 1.03125 -9.820312 1.03125 -9.1875 C 1.03125 -8.613281 1.144531 -8.132812 1.375 -7.75 C 1.601562 -7.375 1.910156 -7.066406 2.296875 -6.828125 C 2.679688 -6.585938 3.113281 -6.390625 3.59375 -6.234375 C 4.070312 -6.085938 4.5625 -5.957031 5.0625 -5.84375 C 5.5625 -5.738281 6.050781 -5.632812 6.53125 -5.53125 C 7.007812 -5.425781 7.441406 -5.285156 7.828125 -5.109375 C 8.210938 -4.941406 8.519531 -4.722656 8.75 -4.453125 C 8.976562 -4.179688 9.09375 -3.832031 9.09375 -3.40625 C 9.09375 -2.945312 8.992188 -2.566406 8.796875 -2.265625 C 8.609375 -1.972656 8.363281 -1.742188 8.0625 -1.578125 C 7.757812 -1.410156 7.414062 -1.289062 7.03125 -1.21875 C 6.65625 -1.144531 6.28125 -1.109375 5.90625 -1.109375 C 5.425781 -1.109375 4.960938 -1.164062 4.515625 -1.28125 C 4.078125 -1.40625 3.691406 -1.585938 3.359375 -1.828125 C 3.023438 -2.078125 2.753906 -2.390625 2.546875 -2.765625 C 2.335938 -3.148438 2.234375 -3.609375 2.234375 -4.140625 L 0.65625 -4.140625 C 0.65625 -3.378906 0.789062 -2.71875 1.0625 -2.15625 C 1.34375 -1.601562 1.71875 -1.144531 2.1875 -0.78125 C 2.664062 -0.425781 3.21875 -0.160156 3.84375 0.015625 C 4.476562 0.191406 5.144531 0.28125 5.84375 0.28125 C 6.414062 0.28125 6.992188 0.210938 7.578125 0.078125 C 8.160156 -0.0546875 8.6875 -0.269531 9.15625 -0.5625 C 9.625 -0.863281 10.007812 -1.253906 10.3125 -1.734375 C 10.613281 -2.210938 10.765625 -2.785156 10.765625 -3.453125 C 10.765625 -4.078125 10.648438 -4.59375 10.421875 -5 C 10.191406 -5.414062 9.882812 -5.753906 9.5 -6.015625 C 9.113281 -6.285156 8.679688 -6.5 8.203125 -6.65625 C 7.722656 -6.820312 7.234375 -6.960938 6.734375 -7.078125 C 6.234375 -7.191406 5.742188 -7.296875 5.265625 -7.390625 C 4.785156 -7.492188 4.351562 -7.625 3.96875 -7.78125 C 3.59375 -7.9375 3.289062 -8.132812 3.0625 -8.375 C 2.832031 -8.613281 2.71875 -8.925781 2.71875 -9.3125 C 2.71875 -9.726562 2.796875 -10.070312 2.953125 -10.34375 C 3.109375 -10.625 3.316406 -10.84375 3.578125 -11 C 3.847656 -11.164062 4.148438 -11.285156 4.484375 -11.359375 C 4.828125 -11.429688 5.175781 -11.46875 5.53125 -11.46875 C 6.394531 -11.46875 7.101562 -11.265625 7.65625 -10.859375 C 8.21875 -10.453125 8.546875 -9.796875 8.640625 -8.890625 Z M 8.640625 -8.890625 "/>
</g>
<g id="glyph-0-2">
<path d="M 3.546875 -5.1875 L 5.671875 -11.0625 L 5.703125 -11.0625 L 7.796875 -5.1875 Z M 4.796875 -12.578125 L -0.109375 0 L 1.609375 0 L 3.015625 -3.78125 L 8.328125 -3.78125 L 9.703125 0 L 11.546875 0 L 6.640625 -12.578125 Z M 4.796875 -12.578125 "/>
</g>
<g id="glyph-0-3">
<path d="M 3.046875 -7.171875 L 3.046875 -11.171875 L 6.390625 -11.171875 C 6.753906 -11.171875 7.097656 -11.148438 7.421875 -11.109375 C 7.742188 -11.066406 8.023438 -10.972656 8.265625 -10.828125 C 8.515625 -10.691406 8.707031 -10.492188 8.84375 -10.234375 C 8.988281 -9.972656 9.0625 -9.617188 9.0625 -9.171875 C 9.0625 -8.503906 8.851562 -8.003906 8.4375 -7.671875 C 8.019531 -7.335938 7.335938 -7.171875 6.390625 -7.171875 Z M 1.375 -12.578125 L 1.375 0 L 7.453125 0 C 8.066406 0 8.613281 -0.0976562 9.09375 -0.296875 C 9.570312 -0.503906 9.972656 -0.773438 10.296875 -1.109375 C 10.617188 -1.453125 10.859375 -1.835938 11.015625 -2.265625 C 11.179688 -2.703125 11.265625 -3.148438 11.265625 -3.609375 C 11.265625 -4.378906 11.054688 -5.035156 10.640625 -5.578125 C 10.234375 -6.117188 9.644531 -6.472656 8.875 -6.640625 L 8.875 -6.671875 C 9.46875 -6.910156 9.925781 -7.269531 10.25 -7.75 C 10.570312 -8.238281 10.734375 -8.816406 10.734375 -9.484375 C 10.734375 -10.117188 10.585938 -10.65625 10.296875 -11.09375 C 10.015625 -11.53125 9.671875 -11.867188 9.265625 -12.109375 C 9.078125 -12.234375 8.847656 -12.320312 8.578125 -12.375 C 8.316406 -12.4375 8.03125 -12.484375 7.71875 -12.515625 C 7.414062 -12.546875 7.109375 -12.5625 6.796875 -12.5625 C 6.492188 -12.570312 6.207031 -12.578125 5.9375 -12.578125 Z M 3.046875 -1.40625 L 3.046875 -5.765625 L 6.875 -5.765625 C 7.21875 -5.765625 7.550781 -5.726562 7.875 -5.65625 C 8.207031 -5.59375 8.5 -5.484375 8.75 -5.328125 C 9.007812 -5.171875 9.210938 -4.957031 9.359375 -4.6875 C 9.515625 -4.414062 9.59375 -4.070312 9.59375 -3.65625 C 9.59375 -2.957031 9.382812 -2.40625 8.96875 -2 C 8.550781 -1.601562 7.972656 -1.40625 7.234375 -1.40625 Z M 3.046875 -1.40625 "/>
</g>
<g id="glyph-0-4">
<path d="M 3.046875 -1.40625 L 3.046875 -11.171875 L 5.859375 -11.171875 C 6.640625 -11.171875 7.289062 -11.0625 7.8125 -10.84375 C 8.34375 -10.625 8.773438 -10.304688 9.109375 -9.890625 C 9.441406 -9.472656 9.679688 -8.96875 9.828125 -8.375 C 9.984375 -7.78125 10.0625 -7.109375 10.0625 -6.359375 C 10.0625 -5.578125 9.976562 -4.914062 9.8125 -4.375 C 9.65625 -3.832031 9.453125 -3.378906 9.203125 -3.015625 C 8.960938 -2.648438 8.6875 -2.359375 8.375 -2.140625 C 8.0625 -1.929688 7.742188 -1.769531 7.421875 -1.65625 C 7.109375 -1.550781 6.8125 -1.484375 6.53125 -1.453125 C 6.25 -1.421875 6.015625 -1.40625 5.828125 -1.40625 Z M 1.375 -12.578125 L 1.375 0 L 5.6875 0 C 6.726562 0 7.628906 -0.144531 8.390625 -0.4375 C 9.160156 -0.726562 9.789062 -1.148438 10.28125 -1.703125 C 10.78125 -2.265625 11.144531 -2.953125 11.375 -3.765625 C 11.613281 -4.585938 11.734375 -5.523438 11.734375 -6.578125 C 11.734375 -8.597656 11.207031 -10.101562 10.15625 -11.09375 C 9.113281 -12.082031 7.625 -12.578125 5.6875 -12.578125 Z M 1.375 -12.578125 "/>
</g>
<g id="glyph-0-5">
<path d="M 6.265625 0 L 6.265625 -12.484375 L 5.125 -12.484375 C 5.039062 -12.015625 4.882812 -11.625 4.65625 -11.3125 C 4.4375 -11.007812 4.164062 -10.769531 3.84375 -10.59375 C 3.519531 -10.425781 3.160156 -10.304688 2.765625 -10.234375 C 2.367188 -10.171875 1.957031 -10.140625 1.53125 -10.140625 L 1.53125 -8.953125 L 4.765625 -8.953125 L 4.765625 0 Z M 6.265625 0 "/>
</g>
<g id="glyph-0-6">
<path d="M 2.328125 -6.140625 C 2.328125 -6.453125 2.328125 -6.789062 2.328125 -7.15625 C 2.335938 -7.53125 2.367188 -7.898438 2.421875 -8.265625 C 2.472656 -8.640625 2.546875 -9 2.640625 -9.34375 C 2.742188 -9.695312 2.890625 -10.003906 3.078125 -10.265625 C 3.273438 -10.535156 3.519531 -10.753906 3.8125 -10.921875 C 4.113281 -11.085938 4.472656 -11.171875 4.890625 -11.171875 C 5.316406 -11.171875 5.675781 -11.085938 5.96875 -10.921875 C 6.257812 -10.753906 6.5 -10.535156 6.6875 -10.265625 C 6.882812 -10.003906 7.035156 -9.695312 7.140625 -9.34375 C 7.242188 -9 7.320312 -8.640625 7.375 -8.265625 C 7.425781 -7.898438 7.453125 -7.53125 7.453125 -7.15625 C 7.460938 -6.789062 7.46875 -6.453125 7.46875 -6.140625 C 7.46875 -5.671875 7.453125 -5.144531 7.421875 -4.5625 C 7.390625 -3.988281 7.296875 -3.445312 7.140625 -2.9375 C 6.984375 -2.425781 6.726562 -1.992188 6.375 -1.640625 C 6.019531 -1.285156 5.523438 -1.109375 4.890625 -1.109375 C 4.253906 -1.109375 3.757812 -1.285156 3.40625 -1.640625 C 3.0625 -1.992188 2.804688 -2.425781 2.640625 -2.9375 C 2.484375 -3.445312 2.390625 -3.988281 2.359375 -4.5625 C 2.335938 -5.144531 2.328125 -5.671875 2.328125 -6.140625 Z M 0.734375 -6.125 C 0.734375 -5.664062 0.742188 -5.191406 0.765625 -4.703125 C 0.796875 -4.210938 0.859375 -3.726562 0.953125 -3.25 C 1.046875 -2.78125 1.179688 -2.335938 1.359375 -1.921875 C 1.535156 -1.503906 1.773438 -1.140625 2.078125 -0.828125 C 2.378906 -0.515625 2.757812 -0.265625 3.21875 -0.078125 C 3.6875 0.0976562 4.242188 0.1875 4.890625 0.1875 C 5.546875 0.1875 6.101562 0.0976562 6.5625 -0.078125 C 7.019531 -0.265625 7.398438 -0.515625 7.703125 -0.828125 C 8.015625 -1.140625 8.257812 -1.503906 8.4375 -1.921875 C 8.613281 -2.335938 8.75 -2.78125 8.84375 -3.25 C 8.9375 -3.726562 8.992188 -4.210938 9.015625 -4.703125 C 9.035156 -5.191406 9.046875 -5.664062 9.046875 -6.125 C 9.046875 -6.582031 9.035156 -7.054688 9.015625 -7.546875 C 8.992188 -8.046875 8.9375 -8.53125 8.84375 -9 C 8.75 -9.46875 8.613281 -9.910156 8.4375 -10.328125 C 8.257812 -10.753906 8.015625 -11.125 7.703125 -11.4375 C 7.398438 -11.757812 7.015625 -12.015625 6.546875 -12.203125 C 6.085938 -12.390625 5.535156 -12.484375 4.890625 -12.484375 C 4.242188 -12.484375 3.6875 -12.390625 3.21875 -12.203125 C 2.757812 -12.015625 2.378906 -11.757812 2.078125 -11.4375 C 1.773438 -11.125 1.535156 -10.753906 1.359375 -10.328125 C 1.179688 -9.910156 1.046875 -9.46875 0.953125 -9 C 0.859375 -8.53125 0.796875 -8.046875 0.765625 -7.546875 C 0.742188 -7.054688 0.734375 -6.582031 0.734375 -6.125 Z M 0.734375 -6.125 "/>
</g>
<g id="glyph-0-7">
<path d="M 1.46875 -1.953125 L 1.46875 0 L 3.421875 0 L 3.421875 -1.953125 Z M 1.46875 -1.953125 "/>
</g>
<g id="glyph-0-8">
<path d="M 0.78125 -8.0625 L 2.265625 -8.0625 C 2.253906 -8.4375 2.289062 -8.804688 2.375 -9.171875 C 2.46875 -9.546875 2.613281 -9.878906 2.8125 -10.171875 C 3.007812 -10.472656 3.265625 -10.710938 3.578125 -10.890625 C 3.890625 -11.078125 4.265625 -11.171875 4.703125 -11.171875 C 5.023438 -11.171875 5.332031 -11.113281 5.625 -11 C 5.925781 -10.894531 6.1875 -10.742188 6.40625 -10.546875 C 6.625 -10.347656 6.796875 -10.109375 6.921875 -9.828125 C 7.046875 -9.554688 7.109375 -9.25 7.109375 -8.90625 C 7.109375 -8.476562 7.039062 -8.097656 6.90625 -7.765625 C 6.769531 -7.429688 6.570312 -7.125 6.3125 -6.84375 C 6.050781 -6.5625 5.71875 -6.28125 5.3125 -6 C 4.914062 -5.726562 4.453125 -5.429688 3.921875 -5.109375 C 3.492188 -4.847656 3.078125 -4.570312 2.671875 -4.28125 C 2.273438 -3.988281 1.914062 -3.644531 1.59375 -3.25 C 1.28125 -2.863281 1.019531 -2.410156 0.8125 -1.890625 C 0.613281 -1.367188 0.484375 -0.738281 0.421875 0 L 8.578125 0 L 8.578125 -1.328125 L 2.171875 -1.328125 C 2.234375 -1.710938 2.378906 -2.050781 2.609375 -2.34375 C 2.835938 -2.644531 3.113281 -2.925781 3.4375 -3.1875 C 3.757812 -3.445312 4.113281 -3.691406 4.5 -3.921875 C 4.894531 -4.148438 5.285156 -4.378906 5.671875 -4.609375 C 6.054688 -4.859375 6.429688 -5.117188 6.796875 -5.390625 C 7.160156 -5.660156 7.484375 -5.960938 7.765625 -6.296875 C 8.046875 -6.628906 8.269531 -7.003906 8.4375 -7.421875 C 8.613281 -7.847656 8.703125 -8.335938 8.703125 -8.890625 C 8.703125 -9.472656 8.597656 -9.988281 8.390625 -10.4375 C 8.179688 -10.882812 7.898438 -11.257812 7.546875 -11.5625 C 7.203125 -11.863281 6.789062 -12.09375 6.3125 -12.25 C 5.832031 -12.40625 5.328125 -12.484375 4.796875 -12.484375 C 4.128906 -12.484375 3.535156 -12.367188 3.015625 -12.140625 C 2.503906 -11.921875 2.078125 -11.613281 1.734375 -11.21875 C 1.390625 -10.832031 1.132812 -10.367188 0.96875 -9.828125 C 0.800781 -9.285156 0.738281 -8.695312 0.78125 -8.0625 Z M 0.78125 -8.0625 "/>
</g>
<g id="glyph-0-9">
<path d="M 2.734375 -9.25 C 2.734375 -9.5625 2.789062 -9.832031 2.90625 -10.0625 C 3.019531 -10.300781 3.171875 -10.503906 3.359375 -10.671875 C 3.554688 -10.835938 3.789062 -10.960938 4.0625 -11.046875 C 4.332031 -11.128906 4.613281 -11.171875 4.90625 -11.171875 C 5.519531 -11.171875 6.023438 -11.007812 6.421875 -10.6875 C 6.816406 -10.363281 7.015625 -9.882812 7.015625 -9.25 C 7.015625 -8.613281 6.816406 -8.117188 6.421875 -7.765625 C 6.035156 -7.410156 5.546875 -7.234375 4.953125 -7.234375 C 4.640625 -7.234375 4.347656 -7.273438 4.078125 -7.359375 C 3.816406 -7.441406 3.582031 -7.566406 3.375 -7.734375 C 3.175781 -7.898438 3.019531 -8.109375 2.90625 -8.359375 C 2.789062 -8.609375 2.734375 -8.90625 2.734375 -9.25 Z M 1.140625 -9.296875 C 1.140625 -8.734375 1.296875 -8.210938 1.609375 -7.734375 C 1.929688 -7.265625 2.359375 -6.921875 2.890625 -6.703125 C 2.179688 -6.460938 1.640625 -6.066406 1.265625 -5.515625 C 0.890625 -4.972656 0.703125 -4.332031 0.703125 -3.59375 C 0.703125 -2.957031 0.8125 -2.398438 1.03125 -1.921875 C 1.25 -1.453125 1.546875 -1.054688 1.921875 -0.734375 C 2.304688 -0.421875 2.753906 -0.1875 3.265625 -0.03125 C 3.785156 0.113281 4.347656 0.1875 4.953125 0.1875 C 5.523438 0.1875 6.0625 0.105469 6.5625 -0.046875 C 7.070312 -0.210938 7.507812 -0.457031 7.875 -0.78125 C 8.25 -1.101562 8.546875 -1.5 8.765625 -1.96875 C 8.984375 -2.4375 9.09375 -2.976562 9.09375 -3.59375 C 9.09375 -4.363281 8.910156 -5.015625 8.546875 -5.546875 C 8.179688 -6.085938 7.625 -6.472656 6.875 -6.703125 C 7.394531 -6.941406 7.8125 -7.289062 8.125 -7.75 C 8.4375 -8.21875 8.59375 -8.734375 8.59375 -9.296875 C 8.59375 -9.691406 8.519531 -10.082031 8.375 -10.46875 C 8.238281 -10.851562 8.019531 -11.191406 7.71875 -11.484375 C 7.414062 -11.785156 7.023438 -12.023438 6.546875 -12.203125 C 6.066406 -12.390625 5.488281 -12.484375 4.8125 -12.484375 C 4.320312 -12.484375 3.859375 -12.410156 3.421875 -12.265625 C 2.984375 -12.128906 2.59375 -11.925781 2.25 -11.65625 C 1.914062 -11.382812 1.644531 -11.050781 1.4375 -10.65625 C 1.238281 -10.269531 1.140625 -9.816406 1.140625 -9.296875 Z M 2.296875 -3.515625 C 2.296875 -3.878906 2.359375 -4.207031 2.484375 -4.5 C 2.617188 -4.800781 2.804688 -5.054688 3.046875 -5.265625 C 3.296875 -5.472656 3.582031 -5.632812 3.90625 -5.75 C 4.226562 -5.863281 4.570312 -5.921875 4.9375 -5.921875 C 5.28125 -5.921875 5.609375 -5.859375 5.921875 -5.734375 C 6.234375 -5.609375 6.503906 -5.4375 6.734375 -5.21875 C 6.972656 -5.007812 7.160156 -4.757812 7.296875 -4.46875 C 7.429688 -4.1875 7.5 -3.878906 7.5 -3.546875 C 7.5 -3.191406 7.4375 -2.863281 7.3125 -2.5625 C 7.1875 -2.269531 7.007812 -2.015625 6.78125 -1.796875 C 6.550781 -1.585938 6.28125 -1.421875 5.96875 -1.296875 C 5.664062 -1.171875 5.328125 -1.109375 4.953125 -1.109375 C 4.171875 -1.109375 3.53125 -1.320312 3.03125 -1.75 C 2.539062 -2.175781 2.296875 -2.765625 2.296875 -3.515625 Z M 2.296875 -3.515625 "/>
</g>
<g id="glyph-0-10">
<path d="M 8.28125 -10.953125 L 8.28125 -12.28125 L 2.109375 -12.28125 L 0.953125 -5.796875 L 2.234375 -5.71875 C 2.523438 -6.070312 2.863281 -6.359375 3.25 -6.578125 C 3.632812 -6.796875 4.070312 -6.90625 4.5625 -6.90625 C 4.976562 -6.90625 5.359375 -6.832031 5.703125 -6.6875 C 6.054688 -6.550781 6.351562 -6.351562 6.59375 -6.09375 C 6.84375 -5.84375 7.035156 -5.546875 7.171875 -5.203125 C 7.304688 -4.859375 7.375 -4.476562 7.375 -4.0625 C 7.375 -3.570312 7.300781 -3.140625 7.15625 -2.765625 C 7.019531 -2.398438 6.832031 -2.09375 6.59375 -1.84375 C 6.351562 -1.601562 6.070312 -1.421875 5.75 -1.296875 C 5.425781 -1.171875 5.085938 -1.109375 4.734375 -1.109375 C 4.359375 -1.109375 4.015625 -1.160156 3.703125 -1.265625 C 3.390625 -1.378906 3.117188 -1.539062 2.890625 -1.75 C 2.660156 -1.957031 2.476562 -2.195312 2.34375 -2.46875 C 2.207031 -2.75 2.128906 -3.046875 2.109375 -3.359375 L 0.609375 -3.359375 C 0.628906 -2.796875 0.742188 -2.289062 0.953125 -1.84375 C 1.160156 -1.40625 1.445312 -1.035156 1.8125 -0.734375 C 2.175781 -0.429688 2.59375 -0.203125 3.0625 -0.046875 C 3.539062 0.105469 4.050781 0.1875 4.59375 0.1875 C 5.320312 0.1875 5.957031 0.0703125 6.5 -0.15625 C 7.050781 -0.382812 7.507812 -0.691406 7.875 -1.078125 C 8.238281 -1.460938 8.507812 -1.90625 8.6875 -2.40625 C 8.875 -2.90625 8.96875 -3.414062 8.96875 -3.9375 C 8.96875 -4.65625 8.859375 -5.28125 8.640625 -5.8125 C 8.429688 -6.351562 8.144531 -6.800781 7.78125 -7.15625 C 7.414062 -7.507812 6.988281 -7.773438 6.5 -7.953125 C 6.007812 -8.128906 5.488281 -8.21875 4.9375 -8.21875 C 4.507812 -8.21875 4.082031 -8.144531 3.65625 -8 C 3.226562 -7.851562 2.878906 -7.628906 2.609375 -7.328125 L 2.578125 -7.359375 L 3.234375 -10.953125 Z M 8.28125 -10.953125 "/>
</g>
<g id="glyph-0-11">
<path d="M 7.296875 -9.296875 L 8.78125 -9.296875 C 8.6875 -10.328125 8.332031 -11.113281 7.71875 -11.65625 C 7.113281 -12.207031 6.296875 -12.484375 5.265625 -12.484375 C 4.367188 -12.484375 3.628906 -12.296875 3.046875 -11.921875 C 2.460938 -11.546875 1.992188 -11.046875 1.640625 -10.421875 C 1.285156 -9.796875 1.035156 -9.082031 0.890625 -8.28125 C 0.742188 -7.476562 0.671875 -6.648438 0.671875 -5.796875 C 0.671875 -5.140625 0.71875 -4.457031 0.8125 -3.75 C 0.914062 -3.039062 1.117188 -2.394531 1.421875 -1.8125 C 1.734375 -1.226562 2.171875 -0.75 2.734375 -0.375 C 3.296875 0 4.039062 0.1875 4.96875 0.1875 C 5.75 0.1875 6.40625 0.0546875 6.9375 -0.203125 C 7.476562 -0.460938 7.910156 -0.796875 8.234375 -1.203125 C 8.554688 -1.609375 8.785156 -2.054688 8.921875 -2.546875 C 9.066406 -3.046875 9.140625 -3.523438 9.140625 -3.984375 C 9.140625 -4.554688 9.050781 -5.085938 8.875 -5.578125 C 8.695312 -6.078125 8.445312 -6.503906 8.125 -6.859375 C 7.800781 -7.222656 7.398438 -7.507812 6.921875 -7.71875 C 6.453125 -7.925781 5.914062 -8.03125 5.3125 -8.03125 C 4.632812 -8.03125 4.035156 -7.898438 3.515625 -7.640625 C 2.992188 -7.378906 2.554688 -6.960938 2.203125 -6.390625 L 2.171875 -6.421875 C 2.179688 -6.910156 2.226562 -7.425781 2.3125 -7.96875 C 2.394531 -8.519531 2.539062 -9.035156 2.75 -9.515625 C 2.96875 -9.992188 3.269531 -10.390625 3.65625 -10.703125 C 4.050781 -11.015625 4.5625 -11.171875 5.1875 -11.171875 C 5.789062 -11.171875 6.273438 -11 6.640625 -10.65625 C 7.003906 -10.3125 7.222656 -9.859375 7.296875 -9.296875 Z M 5.03125 -6.703125 C 5.457031 -6.703125 5.828125 -6.625 6.140625 -6.46875 C 6.460938 -6.320312 6.726562 -6.125 6.9375 -5.875 C 7.144531 -5.625 7.296875 -5.320312 7.390625 -4.96875 C 7.492188 -4.625 7.546875 -4.257812 7.546875 -3.875 C 7.546875 -3.507812 7.488281 -3.160156 7.375 -2.828125 C 7.269531 -2.492188 7.109375 -2.195312 6.890625 -1.9375 C 6.679688 -1.675781 6.421875 -1.472656 6.109375 -1.328125 C 5.804688 -1.179688 5.445312 -1.109375 5.03125 -1.109375 C 4.625 -1.109375 4.257812 -1.179688 3.9375 -1.328125 C 3.613281 -1.472656 3.34375 -1.671875 3.125 -1.921875 C 2.90625 -2.171875 2.738281 -2.460938 2.625 -2.796875 C 2.507812 -3.140625 2.453125 -3.503906 2.453125 -3.890625 C 2.453125 -4.273438 2.503906 -4.640625 2.609375 -4.984375 C 2.722656 -5.335938 2.890625 -5.640625 3.109375 -5.890625 C 3.335938 -6.140625 3.609375 -6.335938 3.921875 -6.484375 C 4.242188 -6.628906 4.613281 -6.703125 5.03125 -6.703125 Z M 5.03125 -6.703125 "/>
</g>
<g id="glyph-0-12">
<path d="M 5.96875 -4.25 L 1.78125 -4.25 L 5.9375 -10.359375 L 5.96875 -10.359375 Z M 7.375 -4.25 L 7.375 -12.484375 L 6.1875 -12.484375 L 0.5 -4.359375 L 0.5 -2.921875 L 5.96875 -2.921875 L 5.96875 0 L 7.375 0 L 7.375 -2.921875 L 9.0625 -2.921875 L 9.0625 -4.25 Z M 7.375 -4.25 "/>
</g>
</g>
</defs>
<g fill="rgb(0%, 0%, 0%)" fill-opacity="1">
<use xlink:href="#glyph-0-0" x="845.28005" y="112.547139"/>
</g>
<path fill-rule="nonzero" fill="rgb(100%, 100%, 100%)" fill-opacity="1" d="M 158.847656 121.542969 C 169.296875 131.992188 169.296875 148.9375 158.847656 159.390625 C 148.394531 169.839844 131.449219 169.839844 121 159.390625 C 110.546875 148.9375 110.546875 131.992188 121 121.542969 C 131.449219 111.089844 148.394531 111.089844 158.847656 121.542969 "/>
<path fill="none" stroke-width="3" stroke-linecap="round" stroke-linejoin="round" stroke="rgb(0%, 0%, 0%)" stroke-opacity="1" stroke-miterlimit="10" d="M 1564.554174 2835.583539 C 1579.391438 2850.420803 1579.391438 2874.48213 1564.554174 2889.319394 C 1549.711363 2904.162205 1525.650036 2904.162205 1510.812772 2889.319394 C 1495.969962 2874.48213 1495.969962 2850.420803 1510.812772 2835.583539 C 1525.650036 2820.740728 1549.711363 2820.740728 1564.554174 2835.583539 " transform="matrix(0.704255, 0, 0, 0.704255, -942.9976, -1875.4312)"/>
<path fill-rule="nonzero" fill="rgb(100%, 100%, 100%)" fill-opacity="1" d="M 47.128906 121.542969 C 57.582031 131.992188 57.582031 148.9375 47.128906 159.390625 C 36.679688 169.839844 19.734375 169.839844 9.28125 159.390625 C -1.167969 148.9375 -1.167969 131.992188 9.28125 121.542969 C 19.734375 111.089844 36.679688 111.089844 47.128906 121.542969 "/>
<path fill="none" stroke-width="3" stroke-linecap="round" stroke-linejoin="round" stroke="rgb(0%, 0%, 0%)" stroke-opacity="1" stroke-miterlimit="10" d="M 1405.92025 2835.583539 C 1420.763061 2850.420803 1420.763061 2874.48213 1405.92025 2889.319394 C 1391.082986 2904.162205 1367.021659 2904.162205 1352.178848 2889.319394 C 1337.341584 2874.48213 1337.341584 2850.420803 1352.178848 2835.583539 C 1367.021659 2820.740728 1391.082986 2820.740728 1405.92025 2835.583539 " transform="matrix(0.704255, 0, 0, 0.704255, -942.9976, -1875.4312)"/>
<g fill="rgb(0%, 0%, 0%)" fill-opacity="1">
<use xlink:href="#glyph-0-1" x="22.501634" y="146.909154"/>
</g>
<path fill-rule="nonzero" fill="rgb(100%, 100%, 100%)" fill-opacity="1" d="M 262.632812 37.476562 C 273.082031 47.925781 273.082031 64.871094 262.632812 75.320312 C 252.179688 85.773438 235.234375 85.773438 224.785156 75.320312 C 214.335938 64.871094 214.335938 47.925781 224.785156 37.476562 C 235.234375 27.023438 252.179688 27.023438 262.632812 37.476562 "/>
<path fill="none" stroke-width="3" stroke-linecap="round" stroke-linejoin="round" stroke="rgb(0%, 0%, 0%)" stroke-opacity="1" stroke-miterlimit="10" d="M 1711.922871 2716.214284 C 1726.760135 2731.051548 1726.760135 2755.112876 1711.922871 2769.95014 C 1697.08006 2784.79295 1673.018733 2784.79295 1658.181469 2769.95014 C 1643.338658 2755.112876 1643.338658 2731.051548 1658.181469 2716.214284 C 1673.018733 2701.371474 1697.08006 2701.371474 1711.922871 2716.214284 " transform="matrix(0.704255, 0, 0, 0.704255, -942.9976, -1875.4312)"/>
<path fill-rule="nonzero" fill="rgb(100%, 100%, 100%)" fill-opacity="1" d="M 359.804688 121.542969 C 370.253906 131.992188 370.253906 148.9375 359.804688 159.390625 C 349.351562 169.839844 332.410156 169.839844 321.957031 159.390625 C 311.507812 148.9375 311.507812 131.992188 321.957031 121.542969 C 332.410156 111.089844 349.351562 111.089844 359.804688 121.542969 "/>
<path fill="none" stroke-width="3" stroke-linecap="round" stroke-linejoin="round" stroke="rgb(0%, 0%, 0%)" stroke-opacity="1" stroke-miterlimit="10" d="M 1849.901105 2835.583539 C 1864.738369 2850.420803 1864.738369 2874.48213 1849.901105 2889.319394 C 1835.058294 2904.162205 1811.002514 2904.162205 1796.159703 2889.319394 C 1781.322439 2874.48213 1781.322439 2850.420803 1796.159703 2835.583539 C 1811.002514 2820.740728 1835.058294 2820.740728 1849.901105 2835.583539 " transform="matrix(0.704255, 0, 0, 0.704255, -942.9976, -1875.4312)"/>
<path fill-rule="nonzero" fill="rgb(100%, 100%, 100%)" fill-opacity="1" d="M 262.632812 211.425781 C 273.082031 221.878906 273.082031 238.820312 262.632812 249.273438 C 252.179688 259.722656 235.234375 259.722656 224.785156 249.273438 C 214.335938 238.820312 214.335938 221.878906 224.785156 211.425781 C 235.234375 200.976562 252.179688 200.976562 262.632812 211.425781 "/>
<path fill="none" stroke-width="3" stroke-linecap="round" stroke-linejoin="round" stroke="rgb(0%, 0%, 0%)" stroke-opacity="1" stroke-miterlimit="10" d="M 1711.922871 2963.211741 C 1726.760135 2978.054552 1726.760135 3002.110333 1711.922871 3016.953143 C 1697.08006 3031.790407 1673.018733 3031.790407 1658.181469 3016.953143 C 1643.338658 3002.110333 1643.338658 2978.054552 1658.181469 2963.211741 C 1673.018733 2948.374478 1697.08006 2948.374478 1711.922871 2963.211741 " transform="matrix(0.704255, 0, 0, 0.704255, -942.9976, -1875.4312)"/>
<path fill="none" stroke-width="3" stroke-linecap="round" stroke-linejoin="round" stroke="rgb(0%, 0%, 0%)" stroke-opacity="1" stroke-miterlimit="10" d="M 1418.549951 2862.451466 L 1482.280852 2862.451466 " transform="matrix(0.704255, 0, 0, 0.704255, -942.9976, -1875.4312)"/>
<path fill-rule="nonzero" fill="rgb(0%, 0%, 0%)" fill-opacity="1" stroke-width="3" stroke-linecap="butt" stroke-linejoin="miter" stroke="rgb(0%, 0%, 0%)" stroke-opacity="1" stroke-miterlimit="10" d="M 1493.47952 2862.451466 L 1482.280852 2858.252659 L 1482.280852 2866.650273 Z M 1493.47952 2862.451466 " transform="matrix(0.704255, 0, 0, 0.704255, -942.9976, -1875.4312)"/>
<path fill="none" stroke-width="3" stroke-linecap="round" stroke-linejoin="round" stroke="rgb(0%, 0%, 0%)" stroke-opacity="1" stroke-miterlimit="10" d="M 1568.375809 2837.585876 L 1642.001918 2777.953942 " transform="matrix(0.704255, 0, 0, 0.704255, -942.9976, -1875.4312)"/>
<path fill-rule="nonzero" fill="rgb(0%, 0%, 0%)" fill-opacity="1" stroke-width="3" stroke-linecap="butt" stroke-linejoin="miter" stroke="rgb(0%, 0%, 0%)" stroke-opacity="1" stroke-miterlimit="10" d="M 1650.704597 2770.904162 L 1639.35617 2774.692517 L 1644.642119 2781.215367 Z M 1650.704597 2770.904162 " transform="matrix(0.704255, 0, 0, 0.704255, -942.9976, -1875.4312)"/>
<path fill="none" stroke-width="3" stroke-linecap="round" stroke-linejoin="round" stroke="rgb(0%, 0%, 0%)" stroke-opacity="1" stroke-miterlimit="10" d="M 1783.530002 2862.451466 L 1593.080547 2862.451466 " transform="matrix(0.704255, 0, 0, 0.704255, -942.9976, -1875.4312)"/>
<path fill-rule="nonzero" fill="rgb(0%, 0%, 0%)" fill-opacity="1" stroke-width="3" stroke-linecap="butt" stroke-linejoin="miter" stroke="rgb(0%, 0%, 0%)" stroke-opacity="1" stroke-miterlimit="10" d="M 1581.88188 2862.451466 L 1593.080547 2866.650273 L 1593.080547 2858.252659 Z M 1581.88188 2862.451466 " transform="matrix(0.704255, 0, 0, 0.704255, -942.9976, -1875.4312)"/>
<path fill="none" stroke-width="3" stroke-linecap="round" stroke-linejoin="round" stroke="rgb(0%, 0%, 0%)" stroke-opacity="1" stroke-miterlimit="10" d="M 1714.923603 2768.929558 L 1781.133853 2826.204169 " transform="matrix(0.704255, 0, 0, 0.704255, -942.9976, -1875.4312)"/>
<path fill-rule="nonzero" fill="rgb(0%, 0%, 0%)" fill-opacity="1" d="M 317.339844 120.097656 L 313.308594 112.699219 L 309.4375 117.175781 Z M 317.339844 120.097656 "/>
<path fill="none" stroke-width="3" stroke-linecap="butt" stroke-linejoin="miter" stroke="rgb(0%, 0%, 0%)" stroke-opacity="1" stroke-miterlimit="10" d="M 1789.603574 2833.531282 L 1783.87944 2823.031491 L 1778.38272 2829.382395 Z M 1789.603574 2833.531282 " transform="matrix(0.704255, 0, 0, 0.704255, -942.9976, -1875.4312)"/>
<path fill="none" stroke-width="3" stroke-linecap="round" stroke-linejoin="round" stroke="rgb(0%, 0%, 0%)" stroke-opacity="1" stroke-miterlimit="10" d="M 1567.543813 2888.315452 L 1643.172259 2953.815732 " transform="matrix(0.704255, 0, 0, 0.704255, -942.9976, -1875.4312)"/>
<path fill-rule="nonzero" fill="rgb(0%, 0%, 0%)" fill-opacity="1" stroke-width="3" stroke-linecap="butt" stroke-linejoin="miter" stroke="rgb(0%, 0%, 0%)" stroke-opacity="1" stroke-miterlimit="10" d="M 1651.636433 2961.142844 L 1645.923393 2950.637507 L 1640.421125 2956.988411 Z M 1651.636433 2961.142844 " transform="matrix(0.704255, 0, 0, 0.704255, -942.9976, -1875.4312)"/>
<path fill="none" stroke-width="3" stroke-linecap="round" stroke-linejoin="round" stroke="rgb(0%, 0%, 0%)" stroke-opacity="1" stroke-miterlimit="10" d="M 1685.049397 2782.57984 L 1685.049397 2934.679822 " transform="matrix(0.704255, 0, 0, 0.704255, -942.9976, -1875.4312)"/>
<path fill-rule="nonzero" fill="rgb(0%, 0%, 0%)" fill-opacity="1" stroke-width="3" stroke-linecap="butt" stroke-linejoin="miter" stroke="rgb(0%, 0%, 0%)" stroke-opacity="1" stroke-miterlimit="10" d="M 1685.049397 2945.884036 L 1689.25375 2934.679822 L 1680.85059 2934.679822 Z M 1685.049397 2945.884036 " transform="matrix(0.704255, 0, 0, 0.704255, -942.9976, -1875.4312)"/>
<g fill="rgb(0%, 0%, 0%)" fill-opacity="1">
<use xlink:href="#glyph-0-2" x="109.749685" y="114.147206"/>
</g>
<g fill="rgb(0%, 0%, 0%)" fill-opacity="1">
<use xlink:href="#glyph-0-3" x="237.678328" y="20.423529"/>
</g>
<g fill="rgb(0%, 0%, 0%)" fill-opacity="1">
<use xlink:href="#glyph-0-4" x="239.01923" y="278.406962"/>
</g>
<g fill="rgb(0%, 0%, 0%)" fill-opacity="1">
<use xlink:href="#glyph-0-0" x="358.658086" y="114.147206"/>
</g>
<path fill-rule="nonzero" fill="rgb(100%, 100%, 100%)" fill-opacity="1" d="M 78.6875 154.445312 L 95.519531 154.445312 L 95.519531 126.484375 L 78.6875 126.484375 Z M 78.6875 154.445312 "/>
<g fill="rgb(1.568604%, 19.999695%, 100%)" fill-opacity="1">
<use xlink:href="#glyph-0-5" x="82.209085" y="146.909154"/>
</g>
<path fill-rule="nonzero" fill="rgb(100%, 100%, 100%)" fill-opacity="1" d="M 167.632812 115.269531 L 208.9375 115.269531 L 208.9375 87.3125 L 167.632812 87.3125 Z M 167.632812 115.269531 "/>
<g fill="rgb(1.568604%, 19.999695%, 100%)" fill-opacity="1">
<use xlink:href="#glyph-0-6" x="171.154392" y="107.734964"/>
<use xlink:href="#glyph-0-7" x="180.943537" y="107.734964"/>
<use xlink:href="#glyph-0-5" x="185.83811" y="107.734964"/>
<use xlink:href="#glyph-0-8" x="195.627256" y="107.734964"/>
</g>
<path fill-rule="nonzero" fill="rgb(100%, 100%, 100%)" fill-opacity="1" d="M 168.859375 197.394531 L 210.164062 197.394531 L 210.164062 169.433594 L 168.859375 169.433594 Z M 168.859375 197.394531 "/>
<g fill="rgb(1.568604%, 19.999695%, 100%)" fill-opacity="1">
<use xlink:href="#glyph-0-6" x="172.382612" y="189.858151"/>
<use xlink:href="#glyph-0-7" x="182.171758" y="189.858151"/>
<use xlink:href="#glyph-0-6" x="187.066331" y="189.858151"/>
<use xlink:href="#glyph-0-9" x="196.855477" y="189.858151"/>
</g>
<path fill-rule="nonzero" fill="rgb(100%, 100%, 100%)" fill-opacity="1" d="M 269.085938 110.199219 L 310.390625 110.199219 L 310.390625 82.242188 L 269.085938 82.242188 Z M 269.085938 110.199219 "/>
<g fill="rgb(1.568604%, 19.999695%, 100%)" fill-opacity="1">
<use xlink:href="#glyph-0-6" x="272.606564" y="102.664327"/>
<use xlink:href="#glyph-0-7" x="282.39571" y="102.664327"/>
<use xlink:href="#glyph-0-8" x="287.290283" y="102.664327"/>
<use xlink:href="#glyph-0-10" x="297.079429" y="102.664327"/>
</g>
<path fill-rule="nonzero" fill="rgb(100%, 100%, 100%)" fill-opacity="1" d="M 251.019531 154.445312 L 282.535156 154.445312 L 282.535156 126.484375 L 251.019531 126.484375 Z M 251.019531 154.445312 "/>
<g fill="rgb(1.568604%, 19.999695%, 100%)" fill-opacity="1">
<use xlink:href="#glyph-0-6" x="254.542421" y="146.909154"/>
<use xlink:href="#glyph-0-7" x="264.331567" y="146.909154"/>
<use xlink:href="#glyph-0-8" x="269.22614" y="146.909154"/>
</g>
<path fill-rule="nonzero" fill="rgb(100%, 100%, 100%)" fill-opacity="1" d="M 223.054688 181.023438 L 264.359375 181.023438 L 264.359375 153.0625 L 223.054688 153.0625 Z M 223.054688 181.023438 "/>
<g fill="rgb(1.568604%, 19.999695%, 100%)" fill-opacity="1">
<use xlink:href="#glyph-0-6" x="226.577155" y="173.486333"/>
<use xlink:href="#glyph-0-7" x="236.366301" y="173.486333"/>
<use xlink:href="#glyph-0-8" x="241.260874" y="173.486333"/>
<use xlink:href="#glyph-0-10" x="251.05002" y="173.486333"/>
</g>
<path fill-rule="nonzero" fill="rgb(100%, 100%, 100%)" fill-opacity="1" d="M 645.433594 121.542969 C 655.882812 131.992188 655.882812 148.9375 645.433594 159.390625 C 634.980469 169.839844 618.035156 169.839844 607.585938 159.390625 C 597.132812 148.9375 597.132812 131.992188 607.585938 121.542969 C 618.035156 111.089844 634.980469 111.089844 645.433594 121.542969 "/>
<path fill="none" stroke-width="3" stroke-linecap="round" stroke-linejoin="round" stroke="rgb(0%, 0%, 0%)" stroke-opacity="1" stroke-miterlimit="10" d="M 2255.471473 2835.583539 C 2270.314283 2850.420803 2270.314283 2874.48213 2255.471473 2889.319394 C 2240.634209 2904.162205 2216.572881 2904.162205 2201.735618 2889.319394 C 2186.892807 2874.48213 2186.892807 2850.420803 2201.735618 2835.583539 C 2216.572881 2820.740728 2240.634209 2820.740728 2255.471473 2835.583539 " transform="matrix(0.704255, 0, 0, 0.704255, -942.9976, -1875.4312)"/>
<g fill="rgb(100%, 15.293884%, 0%)" fill-opacity="1">
<use xlink:href="#glyph-0-10" x="621.61356" y="146.909154"/>
</g>
<path fill-rule="nonzero" fill="rgb(100%, 100%, 100%)" fill-opacity="1" d="M 533.714844 121.542969 C 544.167969 131.992188 544.167969 148.9375 533.714844 159.390625 C 523.265625 169.839844 506.320312 169.839844 495.867188 159.390625 C 485.417969 148.9375 485.417969 131.992188 495.867188 121.542969 C 506.320312 111.089844 523.265625 111.089844 533.714844 121.542969 "/>
<path fill="none" stroke-width="3" stroke-linecap="round" stroke-linejoin="round" stroke="rgb(0%, 0%, 0%)" stroke-opacity="1" stroke-miterlimit="10" d="M 2096.843095 2835.583539 C 2111.685906 2850.420803 2111.685906 2874.48213 2096.843095 2889.319394 C 2082.005831 2904.162205 2057.944504 2904.162205 2043.101694 2889.319394 C 2028.26443 2874.48213 2028.26443 2850.420803 2043.101694 2835.583539 C 2057.944504 2820.740728 2082.005831 2820.740728 2096.843095 2835.583539 " transform="matrix(0.704255, 0, 0, 0.704255, -942.9976, -1875.4312)"/>
<g fill="rgb(100%, 15.293884%, 0%)" fill-opacity="1">
<use xlink:href="#glyph-0-6" x="509.897573" y="146.909154"/>
</g>
<path fill-rule="nonzero" fill="rgb(100%, 100%, 100%)" fill-opacity="1" stroke-width="3" stroke-linecap="round" stroke-linejoin="round" stroke="rgb(0%, 0%, 0%)" stroke-opacity="1" stroke-miterlimit="10" d="M 2402.845716 2716.214284 C 2417.68298 2731.051548 2417.68298 2755.112876 2402.845716 2769.95014 C 2388.002905 2784.79295 2363.941578 2784.79295 2349.104314 2769.95014 C 2334.261504 2755.112876 2334.261504 2731.051548 2349.104314 2716.214284 C 2363.941578 2701.371474 2388.002905 2701.371474 2402.845716 2716.214284 " transform="matrix(0.704255, 0, 0, 0.704255, -942.9976, -1875.4312)"/>
<g fill="rgb(100%, 15.293884%, 0%)" fill-opacity="1">
<use xlink:href="#glyph-0-8" x="725.399634" y="62.842222"/>
</g>
<path fill-rule="nonzero" fill="rgb(100%, 100%, 100%)" fill-opacity="1" d="M 846.390625 121.542969 C 856.839844 131.992188 856.839844 148.9375 846.390625 159.390625 C 835.9375 169.839844 818.996094 169.839844 808.542969 159.390625 C 798.09375 148.9375 798.09375 131.992188 808.542969 121.542969 C 818.996094 111.089844 835.9375 111.089844 846.390625 121.542969 "/>
<path fill="none" stroke-width="3" stroke-linecap="round" stroke-linejoin="round" stroke="rgb(0%, 0%, 0%)" stroke-opacity="1" stroke-miterlimit="10" d="M 2540.82395 2835.583539 C 2555.661214 2850.420803 2555.661214 2874.48213 2540.82395 2889.319394 C 2525.98114 2904.162205 2501.925359 2904.162205 2487.082548 2889.319394 C 2472.245284 2874.48213 2472.245284 2850.420803 2487.082548 2835.583539 C 2501.925359 2820.740728 2525.98114 2820.740728 2540.82395 2835.583539 " transform="matrix(0.704255, 0, 0, 0.704255, -942.9976, -1875.4312)"/>
<g fill="rgb(100%, 15.293884%, 0%)" fill-opacity="1">
<use xlink:href="#glyph-0-10" x="822.572048" y="146.909154"/>
</g>
<path fill-rule="nonzero" fill="rgb(100%, 100%, 100%)" fill-opacity="1" stroke-width="3" stroke-linecap="round" stroke-linejoin="round" stroke="rgb(0%, 0%, 0%)" stroke-opacity="1" stroke-miterlimit="10" d="M 2402.845716 2963.211741 C 2417.68298 2978.054552 2417.68298 3002.110333 2402.845716 3016.953143 C 2388.002905 3031.790407 2363.941578 3031.790407 2349.104314 3016.953143 C 2334.261504 3002.110333 2334.261504 2978.054552 2349.104314 2963.211741 C 2363.941578 2948.374478 2388.002905 2948.374478 2402.845716 2963.211741 " transform="matrix(0.704255, 0, 0, 0.704255, -942.9976, -1875.4312)"/>
<g fill="rgb(100%, 15.293884%, 0%)" fill-opacity="1">
<use xlink:href="#glyph-0-6" x="725.399634" y="236.793232"/>
</g>
<path fill="none" stroke-width="3" stroke-linecap="round" stroke-linejoin="round" stroke="rgb(0%, 0%, 0%)" stroke-opacity="1" stroke-miterlimit="10" d="M 2109.472796 2862.451466 L 2173.203698 2862.451466 " transform="matrix(0.704255, 0, 0, 0.704255, -942.9976, -1875.4312)"/>
<path fill-rule="nonzero" fill="rgb(0%, 0%, 0%)" fill-opacity="1" stroke-width="3" stroke-linecap="butt" stroke-linejoin="miter" stroke="rgb(0%, 0%, 0%)" stroke-opacity="1" stroke-miterlimit="10" d="M 2184.402365 2862.451466 L 2173.203698 2858.252659 L 2173.203698 2866.650273 Z M 2184.402365 2862.451466 " transform="matrix(0.704255, 0, 0, 0.704255, -942.9976, -1875.4312)"/>
<path fill="none" stroke-width="3" stroke-linecap="round" stroke-linejoin="round" stroke="rgb(0%, 0%, 0%)" stroke-opacity="1" stroke-miterlimit="10" d="M 2259.298655 2837.585876 L 2332.924763 2777.953942 " transform="matrix(0.704255, 0, 0, 0.704255, -942.9976, -1875.4312)"/>
<path fill-rule="nonzero" fill="rgb(0%, 0%, 0%)" fill-opacity="1" stroke-width="3" stroke-linecap="butt" stroke-linejoin="miter" stroke="rgb(0%, 0%, 0%)" stroke-opacity="1" stroke-miterlimit="10" d="M 2341.627443 2770.904162 L 2330.279016 2774.692517 L 2335.564964 2781.215367 Z M 2341.627443 2770.904162 " transform="matrix(0.704255, 0, 0, 0.704255, -942.9976, -1875.4312)"/>
<path fill="none" stroke-width="3" stroke-linecap="round" stroke-linejoin="round" stroke="rgb(0%, 0%, 0%)" stroke-opacity="1" stroke-miterlimit="10" d="M 2474.452847 2862.451466 L 2284.003392 2862.451466 " transform="matrix(0.704255, 0, 0, 0.704255, -942.9976, -1875.4312)"/>
<path fill-rule="nonzero" fill="rgb(0%, 0%, 0%)" fill-opacity="1" stroke-width="3" stroke-linecap="butt" stroke-linejoin="miter" stroke="rgb(0%, 0%, 0%)" stroke-opacity="1" stroke-miterlimit="10" d="M 2272.804725 2862.451466 L 2284.003392 2866.650273 L 2284.003392 2858.252659 Z M 2272.804725 2862.451466 " transform="matrix(0.704255, 0, 0, 0.704255, -942.9976, -1875.4312)"/>
<path fill="none" stroke-width="3" stroke-linecap="round" stroke-linejoin="round" stroke="rgb(0%, 0%, 0%)" stroke-opacity="1" stroke-miterlimit="10" d="M 2405.846449 2768.929558 L 2472.056699 2826.204169 " transform="matrix(0.704255, 0, 0, 0.704255, -942.9976, -1875.4312)"/>
<path fill-rule="nonzero" fill="rgb(0%, 0%, 0%)" fill-opacity="1" d="M 803.925781 120.097656 L 799.894531 112.699219 L 796.023438 117.175781 Z M 803.925781 120.097656 "/>
<path fill="none" stroke-width="3" stroke-linecap="butt" stroke-linejoin="miter" stroke="rgb(0%, 0%, 0%)" stroke-opacity="1" stroke-miterlimit="10" d="M 2480.526419 2833.531282 L 2474.802286 2823.031491 L 2469.305565 2829.382395 Z M 2480.526419 2833.531282 " transform="matrix(0.704255, 0, 0, 0.704255, -942.9976, -1875.4312)"/>
<path fill="none" stroke-width="3" stroke-linecap="round" stroke-linejoin="round" stroke="rgb(0%, 0%, 0%)" stroke-opacity="1" stroke-miterlimit="10" d="M 2258.466659 2888.315452 L 2334.095105 2953.815732 " transform="matrix(0.704255, 0, 0, 0.704255, -942.9976, -1875.4312)"/>
<path fill-rule="nonzero" fill="rgb(0%, 0%, 0%)" fill-opacity="1" stroke-width="3" stroke-linecap="butt" stroke-linejoin="miter" stroke="rgb(0%, 0%, 0%)" stroke-opacity="1" stroke-miterlimit="10" d="M 2342.559278 2961.142844 L 2336.846238 2950.637507 L 2331.343971 2956.988411 Z M 2342.559278 2961.142844 " transform="matrix(0.704255, 0, 0, 0.704255, -942.9976, -1875.4312)"/>
<path fill="none" stroke-width="3" stroke-linecap="round" stroke-linejoin="round" stroke="rgb(0%, 0%, 0%)" stroke-opacity="1" stroke-miterlimit="10" d="M 2375.972242 2782.57984 L 2375.972242 2934.679822 " transform="matrix(0.704255, 0, 0, 0.704255, -942.9976, -1875.4312)"/>
<path fill-rule="nonzero" fill="rgb(0%, 0%, 0%)" fill-opacity="1" stroke-width="3" stroke-linecap="butt" stroke-linejoin="miter" stroke="rgb(0%, 0%, 0%)" stroke-opacity="1" stroke-miterlimit="10" d="M 2375.972242 2945.884036 L 2380.176595 2934.679822 L 2371.773435 2934.679822 Z M 2375.972242 2945.884036 " transform="matrix(0.704255, 0, 0, 0.704255, -942.9976, -1875.4312)"/>
<g fill="rgb(0%, 0%, 0%)" fill-opacity="1">
<use xlink:href="#glyph-0-2" x="596.335732" y="114.147206"/>
</g>
<g fill="rgb(0%, 0%, 0%)" fill-opacity="1">
<use xlink:href="#glyph-0-3" x="724.264375" y="20.423529"/>
</g>
<g fill="rgb(0%, 0%, 0%)" fill-opacity="1">
<use xlink:href="#glyph-0-0" x="725.446819" y="278.406962"/>
</g>
<path fill-rule="nonzero" fill="rgb(100%, 100%, 100%)" fill-opacity="1" d="M 565.273438 154.445312 L 582.105469 154.445312 L 582.105469 126.484375 L 565.273438 126.484375 Z M 565.273438 154.445312 "/>
<g fill="rgb(1.568604%, 19.999695%, 100%)" fill-opacity="1">
<use xlink:href="#glyph-0-5" x="568.795132" y="146.909154"/>
</g>
<path fill-rule="nonzero" fill="rgb(100%, 100%, 100%)" fill-opacity="1" d="M 659.113281 115.269531 L 690.628906 115.269531 L 690.628906 87.3125 L 659.113281 87.3125 Z M 659.113281 115.269531 "/>
<g fill="rgb(1.568604%, 19.999695%, 100%)" fill-opacity="1">
<use xlink:href="#glyph-0-6" x="662.635011" y="107.734964"/>
<use xlink:href="#glyph-0-7" x="672.424157" y="107.734964"/>
<use xlink:href="#glyph-0-11" x="677.31873" y="107.734964"/>
</g>
<path fill-rule="nonzero" fill="rgb(100%, 100%, 100%)" fill-opacity="1" d="M 660.339844 197.394531 L 691.855469 197.394531 L 691.855469 169.433594 L 660.339844 169.433594 Z M 660.339844 197.394531 "/>
<g fill="rgb(1.568604%, 19.999695%, 100%)" fill-opacity="1">
<use xlink:href="#glyph-0-6" x="663.863232" y="189.858151"/>
<use xlink:href="#glyph-0-7" x="673.652378" y="189.858151"/>
<use xlink:href="#glyph-0-12" x="678.546951" y="189.858151"/>
</g>
<path fill-rule="nonzero" fill="rgb(100%, 100%, 100%)" fill-opacity="1" d="M 760.566406 110.199219 L 792.082031 110.199219 L 792.082031 82.242188 L 760.566406 82.242188 Z M 760.566406 110.199219 "/>
<g fill="rgb(1.568604%, 19.999695%, 100%)" fill-opacity="1">
<use xlink:href="#glyph-0-6" x="764.087184" y="102.664327"/>
<use xlink:href="#glyph-0-7" x="773.87633" y="102.664327"/>
<use xlink:href="#glyph-0-10" x="778.770903" y="102.664327"/>
</g>
<path fill-rule="nonzero" fill="rgb(100%, 100%, 100%)" fill-opacity="1" d="M 744.949219 154.445312 L 761.78125 154.445312 L 761.78125 126.484375 L 744.949219 126.484375 Z M 744.949219 154.445312 "/>
<g fill="rgb(1.568604%, 19.999695%, 100%)" fill-opacity="1">
<use xlink:href="#glyph-0-5" x="748.470327" y="146.909154"/>
</g>
<path fill-rule="nonzero" fill="rgb(100%, 100%, 100%)" fill-opacity="1" d="M 714.535156 174.285156 L 746.050781 174.285156 L 746.050781 146.328125 L 714.535156 146.328125 Z M 714.535156 174.285156 "/>
<g fill="rgb(1.568604%, 19.999695%, 100%)" fill-opacity="1">
<use xlink:href="#glyph-0-6" x="718.057775" y="166.750133"/>
<use xlink:href="#glyph-0-7" x="727.84692" y="166.750133"/>
<use xlink:href="#glyph-0-10" x="732.741493" y="166.750133"/>
</g>
<path fill="none" stroke-width="12" stroke-linecap="square" stroke-linejoin="round" stroke="rgb(32.940674%, 32.548523%, 32.940674%)" stroke-opacity="1" stroke-miterlimit="10" d="M 1909.882477 2865.507665 L 1950.56154 2865.507665 " transform="matrix(0.704255, 0, 0, 0.704255, -942.9976, -1875.4312)"/>
<path fill-rule="nonzero" fill="rgb(32.940674%, 32.548523%, 32.940674%)" fill-opacity="1" stroke-width="12" stroke-linecap="butt" stroke-linejoin="miter" stroke="rgb(32.940674%, 32.548523%, 32.940674%)" stroke-opacity="1" stroke-miterlimit="10" d="M 1976.164834 2865.507665 L 1950.56154 2855.911977 L 1950.56154 2875.108901 Z M 1976.164834 2865.507665 " transform="matrix(0.704255, 0, 0, 0.704255, -942.9976, -1875.4312)"/>
</svg>
