<svg width="976" height="240" viewBox="0 0 976 240" fill="none" xmlns="http://www.w3.org/2000/svg">
<path d="M19.7499 218.48V2.29004H0.109863V238.12H176.87V218.48H19.7499Z" fill="#00433B"/>
<path d="M176.87 129.96H78.6699V198.83H98.3099V149.6H176.87V129.96Z" fill="#00433B"/>
<path d="M176.87 61.2198V41.5898H78.6699V110.32H176.87V90.6798H98.3099V61.2198H176.87Z" fill="#00433B"/>
<path d="M176.87 2.29004H39.3901V198.83H59.0401V21.95H176.87V2.29004Z" fill="#00433B"/>
<path d="M235.79 110.37V2.23047H256.46V92.1005H289.71V110.37H235.79Z" fill="#00433B"/>
<path d="M321.72 2.23047V77.8705C321.72 88.2005 326.21 93.5905 336.24 93.5905C346.27 93.5905 350.92 88.2005 350.92 77.8705V2.23047H371.59V78.0205C371.59 101.83 357.51 111.86 336.24 111.86C314.97 111.86 301.04 101.83 301.04 78.0205V2.23047H321.71H321.72Z" fill="#00433B"/>
<path d="M388.08 110.37V2.23047H410.7L439.46 66.3305H439.76V2.23047H458.63V110.37H438.85L407.25 40.5705H406.95V110.37H388.08Z" fill="#00433B"/>
<path d="M495.37 92.0997H502.56C513.95 92.0997 520.54 86.7097 520.54 70.5297V42.0797C520.54 26.7997 515.44 20.5097 502.56 20.5097H495.37V92.0997ZM474.7 2.21973H503.46C527.12 2.21973 540.31 12.4097 541.21 39.6697V72.9197C540.31 100.18 527.12 110.36 503.46 110.36H474.7V2.21973Z" fill="#00433B"/>
<path d="M575.75 93.2905H584.44C595.23 93.2905 600.92 87.0005 600.92 77.5605C600.92 67.2205 593.73 62.1305 582.94 62.1305H575.75V93.2805V93.2905ZM575.75 45.0705H582.94C592.22 45.0705 598.37 39.6805 598.37 32.3305C598.37 24.3905 593.73 19.3005 583.99 19.3005H575.76V45.0705H575.75ZM555.08 2.23047H584.13C606.3 2.23047 619.03 11.5105 619.03 30.0905C619.03 39.5305 614.39 47.3105 605.7 52.5605C617.09 59.7505 621.58 65.7405 621.58 79.2205C621.58 100.63 607.2 110.37 585.33 110.37H555.07V2.23047H555.08Z" fill="#00433B"/>
<path d="M635.11 110.37V2.23047H691.73V20.5005H655.78V45.3705H683.19V63.6405H655.78V92.1005H693.23V110.37H635.11Z" fill="#00433B"/>
<path d="M725.7 78.3205C725.7 90.3005 730.94 93.6005 739.18 93.6005C747.42 93.6005 752.66 90.3005 752.66 78.3205V71.1305H773.32V75.6205C773.32 102.27 759.24 111.86 739.17 111.86C719.1 111.86 705.02 102.27 705.02 75.6205V36.9705C705.02 10.3205 719.1 0.730469 739.17 0.730469C759.24 0.730469 773.32 10.3205 773.32 36.9705V37.2805H752.66V34.2805C752.66 22.3005 747.42 19.0005 739.18 19.0005C730.94 19.0005 725.7 22.3005 725.7 34.2805V78.3205Z" fill="#00433B"/>
<path d="M786.85 110.37V2.23047H807.52V46.8705H807.82L834.63 2.23047H857.24L829.39 45.8105L860.39 110.37H837.18L815.61 64.9905L807.52 77.2605V110.37H786.85Z" fill="#00433B"/>
<path d="M235.79 238.11V129.97H289.71V148.24H256.46V173.11H282.52V191.38H256.46V238.11H235.79Z" fill="#00433B"/>
<path d="M320.32 206.06C320.32 218.05 325.56 221.34 333.8 221.34C342.04 221.34 347.28 218.05 347.28 206.06V162.02C347.28 150.04 342.04 146.75 333.8 146.75C325.56 146.75 320.32 150.04 320.32 162.02V206.06ZM299.65 164.72C299.65 138.06 313.73 128.47 333.8 128.47C353.87 128.47 367.95 138.06 367.95 164.72V203.36C367.95 230.02 353.87 239.61 333.8 239.61C313.73 239.61 299.65 230.02 299.65 203.36V164.72Z" fill="#00433B"/>
<path d="M403.21 129.97V205.61C403.21 215.94 407.7 221.33 417.74 221.33C427.78 221.33 432.41 215.94 432.41 205.61V129.97H453.08V205.76C453.08 229.57 439 239.6 417.73 239.6C396.46 239.6 382.53 229.57 382.53 205.76V129.97H403.2H403.21Z" fill="#00433B"/>
<path d="M469.73 238.11V129.97H492.34L521.1 194.08H521.4V129.97H540.28V238.11H520.5L488.9 168.32H488.6V238.11H469.73Z" fill="#00433B"/>
<path d="M577.16 219.84H584.35C595.74 219.84 602.33 214.45 602.33 198.28V169.82C602.33 154.54 597.23 148.25 584.35 148.25H577.16V219.84ZM556.49 129.97H585.25C608.91 129.97 622.09 140.16 623 167.42V200.67C622.1 227.93 608.91 238.12 585.25 238.12H556.49V129.97Z" fill="#00433B"/>
<path d="M659.06 197.07H679.58L669.54 153.34H669.25L659.06 197.07ZM629.55 238.11L656.36 129.98H682.87L708.93 238.11H689.16L683.92 215.35H655.32L649.47 238.11H629.55Z" fill="#00433B"/>
<path d="M774.6 129.97V148.25H750.48V238.12H729.81V148.25H705.7V129.97H774.6Z" fill="#00433B"/>
<path d="M807.4 129.97H786.73V238.11H807.4V129.97Z" fill="#00433B"/>
<path d="M842.91 206.06C842.91 218.05 848.15 221.34 856.39 221.34C864.63 221.34 869.87 218.05 869.87 206.06V162.02C869.87 150.04 864.63 146.75 856.39 146.75C848.15 146.75 842.91 150.04 842.91 162.02V206.06ZM822.24 164.72C822.24 138.06 836.32 128.47 856.39 128.47C876.46 128.47 890.54 138.06 890.54 164.72V203.36C890.54 230.02 876.46 239.61 856.39 239.61C836.32 239.61 822.24 230.02 822.24 203.36V164.72Z" fill="#00433B"/>
<path d="M905.41 238.11V129.97H928.03L956.79 194.08H957.09V129.97H975.96V238.11H956.19L924.58 168.32H924.29V238.11H905.41Z" fill="#00433B"/>
</svg>
