<?xml version="1.0" encoding="UTF-8"?>
<svg xmlns="http://www.w3.org/2000/svg" xmlns:xlink="http://www.w3.org/1999/xlink" width="428pt" height="273pt" viewBox="0 0 428 273">
<defs>
<g>
<g id="glyph-0-0">
<path d="M 12.28125 -12.625 L 14.53125 -12.625 C 14.488281 -13.601562 14.296875 -14.445312 13.953125 -15.15625 C 13.617188 -15.863281 13.15625 -16.453125 12.5625 -16.921875 C 11.96875 -17.390625 11.28125 -17.734375 10.5 -17.953125 C 9.71875 -18.171875 8.867188 -18.28125 7.953125 -18.28125 C 7.128906 -18.28125 6.332031 -18.175781 5.5625 -17.96875 C 4.789062 -17.757812 4.097656 -17.441406 3.484375 -17.015625 C 2.878906 -16.585938 2.390625 -16.046875 2.015625 -15.390625 C 1.648438 -14.734375 1.46875 -13.953125 1.46875 -13.046875 C 1.46875 -12.234375 1.628906 -11.554688 1.953125 -11.015625 C 2.285156 -10.472656 2.722656 -10.03125 3.265625 -9.6875 C 3.804688 -9.34375 4.414062 -9.066406 5.09375 -8.859375 C 5.78125 -8.648438 6.476562 -8.46875 7.1875 -8.3125 C 7.894531 -8.15625 8.585938 -8 9.265625 -7.84375 C 9.953125 -7.695312 10.566406 -7.503906 11.109375 -7.265625 C 11.648438 -7.023438 12.082031 -6.710938 12.40625 -6.328125 C 12.738281 -5.941406 12.90625 -5.441406 12.90625 -4.828125 C 12.90625 -4.171875 12.769531 -3.632812 12.5 -3.21875 C 12.226562 -2.800781 11.875 -2.472656 11.4375 -2.234375 C 11.007812 -1.992188 10.523438 -1.820312 9.984375 -1.71875 C 9.441406 -1.625 8.90625 -1.578125 8.375 -1.578125 C 7.707031 -1.578125 7.054688 -1.660156 6.421875 -1.828125 C 5.785156 -1.992188 5.226562 -2.25 4.75 -2.59375 C 4.28125 -2.945312 3.898438 -3.394531 3.609375 -3.9375 C 3.316406 -4.476562 3.171875 -5.125 3.171875 -5.875 L 0.921875 -5.875 C 0.921875 -4.789062 1.113281 -3.851562 1.5 -3.0625 C 1.894531 -2.269531 2.429688 -1.617188 3.109375 -1.109375 C 3.785156 -0.597656 4.566406 -0.21875 5.453125 0.03125 C 6.347656 0.28125 7.296875 0.40625 8.296875 0.40625 C 9.117188 0.40625 9.941406 0.304688 10.765625 0.109375 C 11.585938 -0.0742188 12.332031 -0.382812 13 -0.8125 C 13.664062 -1.238281 14.210938 -1.785156 14.640625 -2.453125 C 15.066406 -3.128906 15.28125 -3.945312 15.28125 -4.90625 C 15.28125 -5.78125 15.113281 -6.507812 14.78125 -7.09375 C 14.457031 -7.675781 14.023438 -8.160156 13.484375 -8.546875 C 12.941406 -8.929688 12.328125 -9.234375 11.640625 -9.453125 C 10.960938 -9.679688 10.269531 -9.878906 9.5625 -10.046875 C 8.851562 -10.210938 8.15625 -10.363281 7.46875 -10.5 C 6.789062 -10.644531 6.179688 -10.828125 5.640625 -11.046875 C 5.097656 -11.265625 4.660156 -11.546875 4.328125 -11.890625 C 4.003906 -12.234375 3.84375 -12.675781 3.84375 -13.21875 C 3.84375 -13.800781 3.957031 -14.289062 4.1875 -14.6875 C 4.414062 -15.082031 4.71875 -15.394531 5.09375 -15.625 C 5.46875 -15.851562 5.894531 -16.019531 6.375 -16.125 C 6.851562 -16.226562 7.34375 -16.28125 7.84375 -16.28125 C 9.082031 -16.28125 10.097656 -15.988281 10.890625 -15.40625 C 11.679688 -14.832031 12.144531 -13.90625 12.28125 -12.625 Z M 12.28125 -12.625 "/>
</g>
<g id="glyph-1-0">
<path d="M 7.828125 0 L 7.828125 -15.59375 L 6.40625 -15.59375 C 6.300781 -15.007812 6.109375 -14.523438 5.828125 -14.140625 C 5.546875 -13.765625 5.203125 -13.460938 4.796875 -13.234375 C 4.398438 -13.015625 3.953125 -12.863281 3.453125 -12.78125 C 2.953125 -12.707031 2.4375 -12.671875 1.90625 -12.671875 L 1.90625 -11.171875 L 5.96875 -11.171875 L 5.96875 0 Z M 7.828125 0 "/>
</g>
<g id="glyph-2-0">
<path d="M 2.0625 -10.34375 L -0.078125 0 L 1.59375 0 L 2.578125 -4.578125 C 2.660156 -4.960938 2.765625 -5.378906 2.890625 -5.828125 C 3.023438 -6.273438 3.207031 -6.664062 3.4375 -7 C 3.707031 -7.414062 4.023438 -7.769531 4.390625 -8.0625 C 4.753906 -8.351562 5.171875 -8.5625 5.640625 -8.6875 C 5.835938 -8.738281 6.003906 -8.765625 6.140625 -8.765625 C 6.273438 -8.773438 6.445312 -8.78125 6.65625 -8.78125 L 6.90625 -8.78125 C 7.019531 -8.78125 7.101562 -8.773438 7.15625 -8.765625 L 7.5625 -10.578125 C 7.457031 -10.609375 7.359375 -10.613281 7.265625 -10.59375 C 7.171875 -10.582031 7.066406 -10.578125 6.953125 -10.578125 C 6.085938 -10.578125 5.34375 -10.34375 4.71875 -9.875 C 4.101562 -9.414062 3.597656 -8.832031 3.203125 -8.125 L 3.15625 -8.125 L 3.65625 -10.34375 Z M 2.0625 -10.34375 "/>
</g>
<g id="glyph-3-0">
<path d="M 2.28125 -3.5625 L -0.84375 0 L 0.484375 0 L 2.765625 -2.75 L 3.984375 0 L 5.25 0 L 3.53125 -3.46875 L 6.421875 -6.71875 L 5.078125 -6.71875 L 3.078125 -4.28125 L 2.0625 -6.71875 L 0.796875 -6.71875 Z M 2.28125 -3.5625 "/>
</g>
<g id="glyph-3-1">
<path d="M 2.875 -6.71875 L 3.28125 -8.703125 L 2.1875 -8.703125 L 1.765625 -6.71875 L 0.640625 -6.71875 L 0.421875 -5.75 L 1.5625 -5.75 L 0.671875 -1.578125 C 0.660156 -1.472656 0.644531 -1.375 0.625 -1.28125 C 0.613281 -1.195312 0.609375 -1.109375 0.609375 -1.015625 C 0.609375 -0.796875 0.648438 -0.613281 0.734375 -0.46875 C 0.816406 -0.332031 0.925781 -0.222656 1.0625 -0.140625 C 1.195312 -0.0664062 1.351562 -0.0117188 1.53125 0.015625 C 1.71875 0.046875 1.914062 0.0625 2.125 0.0625 C 2.25 0.0625 2.375 0.0546875 2.5 0.046875 C 2.632812 0.0351562 2.769531 0.0195312 2.90625 0 L 3.09375 -1.015625 C 2.988281 -0.984375 2.882812 -0.953125 2.78125 -0.921875 C 2.675781 -0.898438 2.566406 -0.890625 2.453125 -0.890625 C 2.285156 -0.890625 2.132812 -0.921875 2 -0.984375 C 1.863281 -1.054688 1.796875 -1.179688 1.796875 -1.359375 C 1.796875 -1.429688 1.796875 -1.5 1.796875 -1.5625 C 1.804688 -1.632812 1.816406 -1.710938 1.828125 -1.796875 L 2.671875 -5.75 L 4 -5.75 L 4.21875 -6.71875 Z M 2.875 -6.71875 "/>
</g>
<g id="glyph-3-2">
<path d="M 1.5 -3.234375 C 1.5 -3.453125 1.519531 -3.722656 1.5625 -4.046875 C 1.601562 -4.378906 1.671875 -4.734375 1.765625 -5.109375 C 1.859375 -5.484375 1.976562 -5.851562 2.125 -6.21875 C 2.28125 -6.59375 2.457031 -6.929688 2.65625 -7.234375 C 2.863281 -7.535156 3.097656 -7.773438 3.359375 -7.953125 C 3.628906 -8.140625 3.929688 -8.234375 4.265625 -8.234375 C 4.535156 -8.234375 4.753906 -8.1875 4.921875 -8.09375 C 5.097656 -8.007812 5.238281 -7.890625 5.34375 -7.734375 C 5.445312 -7.585938 5.519531 -7.414062 5.5625 -7.21875 C 5.613281 -7.019531 5.644531 -6.816406 5.65625 -6.609375 C 5.675781 -6.398438 5.679688 -6.191406 5.671875 -5.984375 C 5.671875 -5.785156 5.671875 -5.597656 5.671875 -5.421875 C 5.671875 -5.285156 5.648438 -5.078125 5.609375 -4.796875 C 5.566406 -4.515625 5.503906 -4.203125 5.421875 -3.859375 C 5.335938 -3.523438 5.226562 -3.175781 5.09375 -2.8125 C 4.96875 -2.457031 4.800781 -2.128906 4.59375 -1.828125 C 4.394531 -1.535156 4.160156 -1.289062 3.890625 -1.09375 C 3.628906 -0.90625 3.328125 -0.8125 2.984375 -0.8125 C 2.441406 -0.8125 2.054688 -1.03125 1.828125 -1.46875 C 1.609375 -1.90625 1.5 -2.492188 1.5 -3.234375 Z M 0.328125 -3.421875 C 0.328125 -2.921875 0.367188 -2.453125 0.453125 -2.015625 C 0.535156 -1.578125 0.675781 -1.195312 0.875 -0.875 C 1.070312 -0.5625 1.332031 -0.3125 1.65625 -0.125 C 1.976562 0.0507812 2.382812 0.140625 2.875 0.140625 C 3.382812 0.140625 3.832031 0.0351562 4.21875 -0.171875 C 4.613281 -0.390625 4.957031 -0.664062 5.25 -1 C 5.539062 -1.34375 5.789062 -1.726562 6 -2.15625 C 6.207031 -2.582031 6.367188 -3.015625 6.484375 -3.453125 C 6.609375 -3.890625 6.695312 -4.304688 6.75 -4.703125 C 6.8125 -5.097656 6.84375 -5.441406 6.84375 -5.734375 C 6.84375 -6.960938 6.628906 -7.847656 6.203125 -8.390625 C 5.773438 -8.941406 5.160156 -9.21875 4.359375 -9.21875 C 3.878906 -9.21875 3.441406 -9.117188 3.046875 -8.921875 C 2.660156 -8.734375 2.320312 -8.484375 2.03125 -8.171875 C 1.738281 -7.859375 1.484375 -7.5 1.265625 -7.09375 C 1.046875 -6.6875 0.863281 -6.269531 0.71875 -5.84375 C 0.582031 -5.414062 0.484375 -4.988281 0.421875 -4.5625 C 0.359375 -4.144531 0.328125 -3.765625 0.328125 -3.421875 Z M 0.328125 -3.421875 "/>
</g>
</g>
</defs>
<rect x="-42.8" y="-27.3" width="513.6" height="327.6" fill="rgb(100%, 100%, 100%)" fill-opacity="1"/>
<rect x="-42.8" y="-27.3" width="513.6" height="327.6" fill="rgb(100%, 100%, 100%)" fill-opacity="1"/>
<path fill-rule="nonzero" fill="rgb(100%, 100%, 100%)" fill-opacity="1" d="M 225.238281 206.179688 C 240.074219 221.027344 240.066406 245.085938 225.21875 259.921875 C 210.375 274.753906 186.3125 274.746094 171.480469 259.902344 C 156.644531 245.054688 156.652344 220.996094 171.5 206.160156 C 186.34375 191.328125 210.40625 191.335938 225.238281 206.179688 "/>
<path fill="none" stroke-width="3" stroke-linecap="round" stroke-linejoin="round" stroke="rgb(0%, 0%, 0%)" stroke-opacity="1" stroke-miterlimit="10" d="M 5877.238281 9971.179688 C 5892.074219 9986.027344 5892.0625 10010.089844 5877.21875 10024.921875 C 5862.375 10039.761719 5838.3125 10039.75 5823.480469 10024.898438 C 5808.644531 10010.058594 5808.652344 9985.996094 5823.5 9971.160156 C 5838.34375 9956.328125 5862.40625 9956.335938 5877.238281 9971.179688 " transform="matrix(1, 0, 0, 1, -5652, -9765)"/>
<path fill-rule="nonzero" fill="rgb(100%, 100%, 100%)" fill-opacity="1" d="M 67.371094 206.121094 C 82.203125 220.96875 82.195312 245.027344 67.347656 259.863281 C 52.503906 274.695312 28.445312 274.6875 13.609375 259.84375 C -1.226562 244.996094 -1.214844 220.9375 13.628906 206.101562 C 28.476562 191.269531 52.535156 191.277344 67.371094 206.121094 "/>
<path fill="none" stroke-width="3" stroke-linecap="round" stroke-linejoin="round" stroke="rgb(0%, 0%, 0%)" stroke-opacity="1" stroke-miterlimit="10" d="M 5719.367188 9971.121094 C 5734.203125 9985.96875 5734.195312 10010.03125 5719.347656 10024.859375 C 5704.503906 10039.699219 5680.445312 10039.691406 5665.609375 10024.839844 C 5650.773438 10010 5650.785156 9985.9375 5665.628906 9971.101562 C 5680.476562 9956.269531 5704.535156 9956.277344 5719.367188 9971.121094 " transform="matrix(1, 0, 0, 1, -5652, -9765)"/>
<g fill="rgb(0%, 0%, 0%)" fill-opacity="1">
<use xlink:href="#glyph-0-0" x="32.386012" y="242.12308"/>
</g>
<path fill-rule="nonzero" fill="rgb(100%, 100%, 100%)" fill-opacity="1" d="M 225.238281 13.273438 C 240.074219 28.117188 240.066406 52.179688 225.21875 67.011719 C 210.375 81.847656 186.3125 81.839844 171.480469 66.992188 C 156.644531 52.148438 156.652344 28.085938 171.5 13.253906 C 186.34375 -1.582031 210.40625 -1.574219 225.238281 13.273438 "/>
<path fill="none" stroke-width="3" stroke-linecap="round" stroke-linejoin="round" stroke="rgb(0%, 0%, 0%)" stroke-opacity="1" stroke-miterlimit="10" d="M 5877.238281 9778.273438 C 5892.074219 9793.117188 5892.0625 9817.179688 5877.21875 9832.011719 C 5862.375 9846.847656 5838.3125 9846.839844 5823.480469 9831.992188 C 5808.644531 9817.148438 5808.652344 9793.085938 5823.5 9778.253906 C 5838.34375 9763.417969 5862.40625 9763.425781 5877.238281 9778.273438 " transform="matrix(1, 0, 0, 1, -5652, -9765)"/>
<path fill-rule="nonzero" fill="rgb(100%, 100%, 100%)" fill-opacity="1" d="M 415.34375 206.121094 C 430.175781 220.96875 430.167969 245.027344 415.324219 259.863281 C 400.476562 274.695312 376.417969 274.6875 361.582031 259.84375 C 346.75 244.996094 346.757812 220.9375 361.601562 206.101562 C 376.449219 191.269531 400.507812 191.277344 415.34375 206.121094 "/>
<path fill="none" stroke-width="3" stroke-linecap="round" stroke-linejoin="round" stroke="rgb(0%, 0%, 0%)" stroke-opacity="1" stroke-miterlimit="10" d="M 6067.34375 9971.121094 C 6082.179688 9985.96875 6082.167969 10010.03125 6067.324219 10024.859375 C 6052.476562 10039.699219 6028.417969 10039.691406 6013.582031 10024.839844 C 5998.75 10010 5998.757812 9985.9375 6013.601562 9971.101562 C 6028.449219 9956.269531 6052.507812 9956.277344 6067.34375 9971.121094 " transform="matrix(1, 0, 0, 1, -5652, -9765)"/>
<path fill="none" stroke-width="3" stroke-linecap="round" stroke-linejoin="round" stroke="rgb(0%, 0%, 0%)" stroke-opacity="1" stroke-miterlimit="10" d="M 5731.988281 9997.996094 L 5794.960938 9998.019531 " transform="matrix(1, 0, 0, 1, -5652, -9765)"/>
<path fill-rule="nonzero" fill="rgb(0%, 0%, 0%)" fill-opacity="1" stroke-width="3" stroke-linecap="butt" stroke-linejoin="miter" stroke="rgb(0%, 0%, 0%)" stroke-opacity="1" stroke-miterlimit="10" d="M 5806.160156 9998.023438 L 5794.960938 9993.820312 L 5794.957031 10002.21875 Z M 5806.160156 9998.023438 " transform="matrix(1, 0, 0, 1, -5652, -9765)"/>
<path fill="none" stroke-width="3" stroke-linecap="round" stroke-linejoin="round" stroke="rgb(0%, 0%, 0%)" stroke-opacity="1" stroke-miterlimit="10" d="M 5850.359375 9958.539062 L 5850.359375 9860.53125 " transform="matrix(1, 0, 0, 1, -5652, -9765)"/>
<path fill-rule="nonzero" fill="rgb(0%, 0%, 0%)" fill-opacity="1" stroke-width="3" stroke-linecap="butt" stroke-linejoin="miter" stroke="rgb(0%, 0%, 0%)" stroke-opacity="1" stroke-miterlimit="10" d="M 5850.359375 9849.332031 L 5846.160156 9860.53125 L 5854.558594 9860.53125 Z M 5850.359375 9849.332031 " transform="matrix(1, 0, 0, 1, -5652, -9765)"/>
<path fill="none" stroke-width="3" stroke-linecap="round" stroke-linejoin="round" stroke="rgb(0%, 0%, 0%)" stroke-opacity="1" stroke-miterlimit="10" d="M 5889.859375 9998.027344 L 5985.0625 9998 " transform="matrix(1, 0, 0, 1, -5652, -9765)"/>
<path fill-rule="nonzero" fill="rgb(0%, 0%, 0%)" fill-opacity="1" d="M 344.261719 232.996094 L 333.0625 228.800781 L 333.066406 237.199219 Z M 344.261719 232.996094 "/>
<path fill="none" stroke-width="3" stroke-linecap="butt" stroke-linejoin="miter" stroke="rgb(0%, 0%, 0%)" stroke-opacity="1" stroke-miterlimit="10" d="M 5996.261719 9997.996094 L 5985.0625 9993.800781 L 5985.0625 10002.199219 Z M 5996.261719 9997.996094 " transform="matrix(1, 0, 0, 1, -5652, -9765)"/>
<path fill="none" stroke-width="3" stroke-linecap="round" stroke-linejoin="round" stroke="rgb(0%, 0%, 0%)" stroke-opacity="1" stroke-miterlimit="10" d="M 5878.089844 9833.261719 L 6001.570312 9958.527344 " transform="matrix(1, 0, 0, 1, -5652, -9765)"/>
<path fill-rule="nonzero" fill="rgb(0%, 0%, 0%)" fill-opacity="1" d="M 357.433594 201.503906 L 352.5625 190.582031 L 346.582031 196.476562 Z M 357.433594 201.503906 "/>
<path fill="none" stroke-width="3" stroke-linecap="butt" stroke-linejoin="miter" stroke="rgb(0%, 0%, 0%)" stroke-opacity="1" stroke-miterlimit="10" d="M 6009.433594 9966.503906 L 6004.5625 9955.578125 L 5998.578125 9961.476562 Z M 6009.433594 9966.503906 " transform="matrix(1, 0, 0, 1, -5652, -9765)"/>
<path fill-rule="nonzero" fill="rgb(100%, 100%, 100%)" fill-opacity="1" d="M 105.269531 251.320312 L 127.5 251.320312 L 127.5 214.703125 L 105.269531 214.703125 Z M 105.269531 251.320312 "/>
<g fill="rgb(0%, 0%, 0%)" fill-opacity="1">
<use xlink:href="#glyph-1-0" x="110.268" y="240.7"/>
</g>
<path fill-rule="nonzero" fill="rgb(100%, 100%, 100%)" fill-opacity="1" d="M 186.902344 166.199219 L 209.816406 166.199219 L 209.816406 127.835938 L 186.902344 127.835938 Z M 186.902344 166.199219 "/>
<g fill="rgb(0%, 0%, 0%)" fill-opacity="1">
<use xlink:href="#glyph-2-0" x="191.902" y="151.837"/>
</g>
<g fill="rgb(0%, 0%, 0%)" fill-opacity="1">
<use xlink:href="#glyph-3-0" x="198.562" y="157.837"/>
</g>
<path fill-rule="nonzero" fill="rgb(100%, 100%, 100%)" fill-opacity="1" d="M 278.890625 151.539062 L 299.648438 151.539062 L 299.648438 113.171875 L 278.890625 113.171875 Z M 278.890625 151.539062 "/>
<g fill="rgb(0%, 0%, 0%)" fill-opacity="1">
<use xlink:href="#glyph-2-0" x="283.892" y="137.174"/>
</g>
<g fill="rgb(0%, 0%, 0%)" fill-opacity="1">
<use xlink:href="#glyph-3-1" x="290.552" y="143.174"/>
</g>
<path fill-rule="nonzero" fill="rgb(100%, 100%, 100%)" fill-opacity="1" d="M 276.957031 252.195312 L 300.84375 252.195312 L 300.84375 213.832031 L 276.957031 213.832031 Z M 276.957031 252.195312 "/>
<g fill="rgb(0%, 0%, 0%)" fill-opacity="1">
<use xlink:href="#glyph-2-0" x="281.956" y="237.83"/>
</g>
<g fill="rgb(0%, 0%, 0%)" fill-opacity="1">
<use xlink:href="#glyph-3-2" x="288.616" y="243.83"/>
</g>
</svg>
